<?xml version="1.0" standalone="no"?>
<svg version="1.0" xmlns="http://www.w3.org/2000/svg"
 width="1142.000000pt" height="1208.000000pt" viewBox="0 0 1142.000000 1208.000000"
 preserveAspectRatio="xMidYMid meet">

<g transform="translate(0.000000,1208.000000) scale(0.100000,-0.100000)"
fill="#000000" stroke="none">
<path d="M10607 10553 c51 -80 90 -120 123 -127 26 -5 70 -40 70 -56 0 -12
-51 -30 -85 -30 -43 0 -80 14 -117 45 -16 14 -39 25 -51 25 -12 0 -42 11 -65
25 -24 14 -48 23 -53 20 -4 -3 -11 -22 -15 -41 -6 -31 -2 -40 28 -72 71 -76
93 -114 91 -159 -1 -43 -27 -93 -47 -93 -24 0 -56 32 -56 56 0 14 -7 63 -17
110 -11 58 -21 85 -32 89 -25 7 -139 -19 -202 -48 -58 -26 -82 -48 -60 -55 7
-2 24 -14 38 -27 l26 -22 -21 -35 -22 -35 22 -60 c12 -32 19 -66 16 -75 -10
-24 -113 -70 -168 -76 -53 -5 -64 2 -121 78 -33 43 -41 37 -27 -18 13 -54 -1
-108 -37 -142 l-25 -24 -48 23 c-74 35 -77 37 -86 63 -14 40 0 71 49 106 43
30 45 34 45 81 0 27 -4 52 -8 55 -5 3 -18 -18 -30 -47 -26 -60 -85 -125 -157
-170 -27 -18 -56 -45 -63 -60 -19 -39 -53 -53 -92 -37 -16 7 -30 16 -30 20 0
9 120 110 131 110 13 0 10 40 -4 74 l-12 28 -57 -71 c-83 -106 -97 -115 -169
-108 -54 5 -61 3 -78 -19 -11 -14 -23 -39 -26 -55 -7 -29 -9 -30 -43 -24 -22
4 -48 19 -65 37 -32 34 -58 33 -111 -6 -47 -35 -114 -58 -148 -50 -28 6 -29 5
-18 -17 11 -20 9 -26 -24 -56 -42 -39 -67 -40 -76 -3 -7 28 -43 41 -80 28 -14
-5 -42 -31 -62 -57 -32 -42 -81 -72 -94 -58 -3 2 1 27 8 55 6 29 9 55 5 58
-23 23 -147 -67 -147 -108 0 -15 8 -18 56 -18 l56 0 -41 -40 c-22 -22 -41 -49
-41 -61 0 -16 -5 -20 -27 -17 -27 3 -28 5 -28 64 0 46 -5 67 -19 83 -12 13
-17 29 -14 46 7 32 -2 32 -44 -2 -47 -39 -55 -50 -88 -120 -16 -35 -32 -63
-35 -63 -22 0 -45 25 -51 55 -8 45 14 81 56 90 39 9 34 29 -9 33 -24 3 -40 -4
-66 -27 -19 -16 -52 -33 -72 -37 -46 -8 -75 -33 -98 -84 -34 -76 -80 -59 -73
27 5 56 3 58 -47 53 -29 -3 -85 -59 -107 -107 -23 -53 -48 -56 -79 -10 -12 17
-24 34 -25 36 -2 2 -17 -10 -34 -27 -48 -48 -136 -95 -166 -88 -19 5 -30 0
-47 -19 -12 -14 -37 -30 -55 -35 -36 -10 -52 1 -95 64 -10 14 -27 26 -37 26
-27 0 -26 -5 15 -54 69 -84 27 -119 -55 -47 -25 22 -56 43 -69 46 -27 7 -100
55 -120 79 -8 9 -27 16 -43 16 -16 0 -55 11 -88 25 -80 34 -99 32 -153 -15
-25 -22 -52 -40 -61 -40 -28 0 -30 29 -5 56 18 20 21 27 10 33 -21 13 -50 1
-73 -30 -19 -26 -25 -28 -67 -23 -25 4 -59 15 -74 26 -23 16 -38 19 -73 13
-25 -3 -52 -2 -63 5 -21 11 -101 13 -186 6 -27 -3 -91 -5 -142 -6 -51 0 -95
-5 -98 -9 -2 -5 28 -12 68 -16 67 -6 106 -7 197 -2 51 2 183 -23 250 -48 19
-7 43 -16 53 -19 19 -6 22 -28 7 -57 -8 -15 -22 -19 -61 -19 -60 0 -95 -20
-114 -67 -19 -45 -37 -38 -50 20 -5 25 -13 49 -17 53 -10 10 -36 -14 -64 -58
-14 -21 -30 -38 -37 -38 -6 0 -21 17 -32 38 -24 45 -45 47 -65 7 -8 -17 -24
-39 -35 -50 -25 -24 -89 -55 -115 -55 -23 0 -157 -53 -225 -88 -57 -30 -221
-178 -243 -220 -59 -111 -101 -203 -107 -236 -32 -186 41 -426 172 -560 51
-52 175 -146 241 -181 28 -15 52 -33 52 -39 0 -15 186 -18 315 -5 180 19 311
75 454 196 124 104 117 99 135 84 18 -16 21 -53 5 -83 -9 -16 -17 -19 -45 -13
-37 6 -39 4 -24 -26 9 -15 6 -24 -14 -44 -14 -14 -32 -25 -40 -25 -17 0 -59
-87 -52 -107 7 -18 -30 -54 -49 -47 -21 8 -19 44 4 68 14 16 17 27 10 44 l-9
24 -24 -29 c-14 -16 -28 -42 -32 -57 -3 -15 -20 -37 -36 -49 -17 -12 -34 -32
-39 -44 -6 -17 -17 -23 -40 -23 -21 0 -40 -8 -55 -25 -25 -27 -40 -30 -64 -15
-13 9 -12 13 9 30 13 11 31 20 40 20 21 0 101 60 101 76 0 6 9 19 20 29 11 10
20 22 20 27 0 10 -68 -40 -106 -79 -16 -16 -35 -23 -63 -23 -31 0 -41 -4 -46
-21 -4 -12 -26 -29 -50 -39 -24 -10 -49 -28 -55 -39 -13 -25 -58 -28 -66 -6
-8 19 11 43 37 47 30 5 27 23 -4 26 -32 4 -77 -21 -77 -43 0 -8 -12 -18 -27
-21 -16 -4 -40 -16 -54 -26 -32 -24 -77 -15 -89 17 -11 30 -59 40 -105 24 -34
-13 -36 -12 -70 21 -41 40 -48 20 -8 -22 35 -37 12 -38 -57 -3 -55 28 -66 40
-22 25 l27 -10 -24 20 c-13 11 -48 27 -77 36 -67 19 -169 101 -152 122 8 9 4
20 -15 40 -14 15 -38 54 -52 86 -22 48 -25 63 -16 78 9 15 6 27 -16 66 -15 26
-40 58 -55 70 -31 26 -36 53 -13 72 19 16 19 30 1 30 -13 0 -19 -12 -36 -78
-8 -31 -1 -44 25 -48 6 0 15 -2 21 -2 17 -3 24 -26 34 -109 10 -78 37 -141 78
-185 19 -20 22 -28 11 -28 -20 0 -77 71 -91 113 -6 17 -19 43 -30 56 -10 13
-18 37 -18 53 0 32 -16 68 -29 68 -12 0 -6 -79 8 -114 6 -16 10 -31 8 -33 -6
-6 -92 98 -111 134 -9 18 -21 55 -27 82 -6 28 -20 61 -31 73 l-20 23 6 -25 c3
-14 6 -51 6 -84 0 -53 3 -61 33 -90 21 -20 44 -59 63 -107 25 -65 32 -76 52
-76 30 0 109 -77 117 -114 4 -15 17 -35 31 -43 14 -10 24 -26 24 -41 0 -13 5
-27 10 -30 16 -10 12 42 -5 75 -9 17 -11 30 -6 30 16 0 111 -96 111 -112 0 -8
-11 -35 -23 -59 -26 -48 -31 -50 -121 -30 -86 19 -115 50 -80 85 8 9 11 16 5
16 -6 0 -16 -9 -23 -20 -14 -23 -67 -27 -86 -8 -22 22 -14 57 18 73 17 9 30
22 30 30 0 8 -2 15 -5 15 -16 0 -72 -29 -84 -43 -18 -22 -44 -21 -64 1 -25 28
-21 51 13 70 36 20 38 30 8 34 -17 2 -24 11 -26 30 -3 29 -40 65 -104 101 -45
26 -57 57 -35 91 9 13 13 26 10 30 -13 13 -30 5 -41 -19 -22 -47 -81 -21 -68
30 6 25 45 43 65 30 7 -4 11 3 11 18 0 14 -11 32 -31 46 -24 18 -30 29 -27 54
2 24 8 33 26 35 27 4 29 23 4 45 -17 16 -19 15 -31 -18 -7 -19 -18 -35 -26
-35 -24 0 -74 50 -101 101 -30 54 -54 64 -54 23 0 -16 10 -34 25 -46 29 -23
28 -47 -6 -108 -18 -31 -29 -40 -49 -40 -28 0 -50 31 -50 70 0 32 -18 32 -35
0 -15 -29 -15 -34 0 -56 15 -23 14 -27 -12 -67 -25 -36 -34 -42 -63 -42 -34 0
-35 1 -40 45 -5 43 -6 44 -18 21 -9 -14 -11 -36 -8 -56 5 -27 0 -44 -25 -85
-17 -28 -28 -57 -25 -65 8 -22 -45 -114 -105 -181 -44 -49 -83 -115 -99 -169
-18 -61 -73 -185 -81 -185 -16 0 -39 46 -39 76 0 26 10 41 50 76 l49 43 -11
42 c-16 58 -1 89 60 116 l49 22 -5 48 c-6 62 10 91 64 118 44 21 44 21 29 49
-8 16 -15 48 -16 72 0 24 -3 36 -7 28 -20 -43 -85 -130 -97 -130 -17 0 -35 31
-35 61 0 13 16 40 37 61 31 32 34 38 19 44 -35 13 -88 -44 -101 -109 -3 -15
-22 -44 -43 -65 -89 -88 -142 -178 -142 -242 0 -43 -18 -88 -44 -110 -9 -7
-25 -32 -36 -56 -10 -24 -23 -44 -29 -44 -5 0 -21 14 -35 32 l-25 32 -23 -29
c-27 -35 -61 -106 -53 -113 3 -3 27 5 54 17 39 19 52 21 70 12 11 -7 21 -14
21 -16 0 -2 -14 -24 -30 -49 -17 -24 -37 -61 -45 -80 -17 -41 -32 -44 -66 -17
-21 17 -24 27 -22 75 3 53 2 56 -21 56 -34 0 -81 -42 -119 -108 -24 -42 -41
-58 -67 -67 -36 -12 -80 -64 -80 -96 0 -15 8 -12 51 17 28 19 55 34 60 34 23
0 18 -33 -15 -103 -28 -58 -42 -76 -62 -81 -35 -9 -83 -63 -90 -103 -8 -42
-22 -42 -65 0 l-35 34 -57 -63 c-53 -58 -77 -98 -77 -128 0 -24 82 12 112 48
48 58 123 74 111 24 -12 -45 35 10 52 62 12 37 23 51 53 66 20 10 58 38 84 62
49 44 81 52 112 29 25 -18 16 -40 -43 -106 l-49 -54 -26 28 c-14 15 -27 26
-29 24 -8 -12 -69 -171 -81 -213 -8 -26 -23 -54 -33 -61 -11 -8 -28 -40 -38
-72 -10 -32 -30 -69 -45 -83 -14 -14 -37 -41 -50 -60 -13 -19 -37 -47 -52 -62
-19 -17 -28 -36 -28 -56 0 -17 -5 -43 -10 -57 -16 -42 -1 -50 30 -16 16 16 40
33 54 37 32 8 76 -18 76 -45 0 -18 -40 -59 -77 -79 -13 -8 -37 -100 -28 -110
2 -2 17 4 34 12 50 27 101 -6 101 -65 0 -25 -46 -79 -67 -79 -10 0 -13 -16
-11 -63 2 -75 -3 -86 -39 -79 -69 12 -83 69 -32 127 35 40 34 73 -3 97 -49 32
-158 147 -158 166 0 27 38 72 61 72 24 0 24 12 -1 35 -28 26 -25 59 10 98 23
26 30 44 30 74 0 47 38 93 75 93 18 0 24 7 30 36 4 23 23 54 50 83 33 36 43
53 38 69 l-5 22 -30 -25 c-16 -14 -33 -25 -38 -25 -18 0 -119 -138 -131 -178
-18 -62 -32 -69 -63 -32 -14 17 -30 38 -34 47 -5 8 -28 17 -53 20 -38 4 -47 1
-68 -21 -26 -27 -55 -34 -67 -15 -4 6 -19 9 -36 5 -18 -3 -41 0 -58 9 -40 20
-73 19 -95 -5 -25 -28 -13 -53 20 -40 30 11 75 13 99 4 25 -10 19 -37 -20 -88
-25 -33 -40 -67 -50 -112 -7 -35 -20 -74 -28 -86 -9 -12 -16 -37 -16 -55 0
-26 -4 -33 -19 -33 -23 0 -67 -49 -89 -100 -9 -19 -30 -51 -48 -70 -17 -19
-37 -52 -44 -72 -14 -45 -44 -51 -78 -15 -33 35 -27 59 23 105 26 24 45 50 45
62 0 39 40 117 66 129 15 6 33 30 45 58 11 27 36 62 54 80 42 38 44 60 10 73
-48 18 -87 -9 -139 -96 -26 -44 -50 -95 -52 -114 -14 -106 -27 -140 -80 -202
-30 -35 -54 -69 -54 -76 0 -7 -7 -26 -15 -42 -14 -27 -14 -33 0 -60 17 -34 14
-58 -21 -136 -13 -29 -37 -62 -58 -78 -20 -15 -39 -38 -42 -51 -3 -13 -27 -42
-54 -64 -30 -25 -51 -52 -55 -70 -10 -45 -29 -57 -60 -37 -34 22 -39 21 -54
-19 -8 -24 -28 -45 -62 -67 -33 -22 -56 -47 -69 -75 -24 -51 -48 -55 -82 -15
l-24 29 -19 -39 c-45 -93 -50 -98 -105 -98 l-50 0 -34 -72 c-19 -40 -40 -95
-47 -121 -7 -27 -29 -69 -51 -97 -45 -56 -117 -192 -142 -266 -22 -67 -45 -88
-85 -79 -34 7 -36 2 -25 -52 5 -27 9 -30 46 -29 87 2 72 -89 -19 -120 -2 0 2
-26 8 -58 11 -55 13 -57 39 -51 14 3 39 1 53 -4 39 -15 36 -58 -8 -115 -39
-52 -38 -48 -25 -97 l10 -36 63 1 c49 1 61 5 58 16 -10 34 -3 98 13 122 26 39
72 55 105 37 14 -8 27 -25 29 -37 4 -27 -56 -112 -92 -132 -28 -14 -126 -151
-126 -174 0 -23 32 -116 40 -116 4 0 13 7 20 15 21 26 65 18 94 -16 29 -34 32
-50 14 -82 -16 -30 -39 -46 -65 -47 -13 0 -23 -2 -23 -5 0 -28 164 -412 241
-563 49 -97 65 -122 78 -116 36 15 52 16 66 4 21 -18 19 -34 -11 -63 -24 -25
-25 -27 -9 -56 8 -17 17 -31 20 -31 2 0 15 11 29 25 14 14 36 25 48 25 34 0
68 -27 68 -54 0 -38 -30 -127 -45 -133 -11 -4 -12 -10 -5 -24 6 -10 14 -18 18
-18 39 6 73 -34 70 -82 -1 -27 6 -47 26 -73 l28 -37 21 43 c19 37 27 43 58 46
74 6 108 -64 61 -128 -19 -25 -20 -33 -11 -57 6 -15 11 -43 10 -62 0 -28 12
-49 66 -117 62 -77 69 -82 112 -87 33 -4 52 -12 69 -32 21 -26 22 -29 7 -51
-15 -23 -14 -27 4 -53 24 -33 344 -340 451 -432 378 -326 868 -621 1357 -818
929 -374 1958 -458 2933 -240 1127 252 2141 896 2852 1814 752 971 1124 2234
1017 3450 -63 723 -286 1442 -633 2044 -36 62 -66 115 -66 117 0 2 14 11 31
19 19 11 29 22 25 31 -3 8 -1 14 4 14 6 0 26 18 46 40 20 22 49 48 63 56 14 9
46 42 70 75 25 32 48 59 53 59 4 0 18 19 30 41 41 74 46 82 62 91 9 5 16 15
16 23 0 8 9 20 19 27 11 8 25 26 32 41 7 15 20 29 31 33 17 5 121 126 129 151
2 6 24 34 48 63 46 52 66 94 81 164 6 28 23 54 65 95 31 31 64 70 72 86 9 17
23 39 33 50 52 59 153 296 191 448 6 26 15 47 19 47 5 0 6 9 3 21 -3 11 0 31
7 44 16 30 0 122 -36 208 -14 32 -22 62 -19 67 15 25 21 157 9 202 -6 26 -10
49 -7 52 3 2 -2 17 -10 33 -18 35 -57 147 -67 193 -9 45 -31 90 -43 90 -5 0
-30 21 -56 48 -26 26 -67 61 -91 77 -23 17 -72 58 -108 93 -83 78 -104 80 -55
5z m13 -548 c10 -12 10 -19 2 -27 -13 -13 -42 6 -42 28 0 19 24 18 40 -1z
m-184 -72 c-10 -10 -19 5 -10 18 6 11 8 11 12 0 2 -7 1 -15 -2 -18z m-152 -44
c14 -11 26 -27 26 -34 0 -8 -18 -35 -40 -60 -22 -25 -40 -50 -40 -54 0 -4 -9
-18 -20 -31 -11 -13 -20 -29 -20 -37 0 -16 -31 -74 -66 -123 -25 -35 -65 -74
-140 -136 -35 -29 -45 -46 -59 -99 -10 -36 -22 -65 -26 -65 -5 0 -19 14 -31
31 -13 17 -44 45 -69 63 -25 19 -63 60 -84 92 -21 33 -46 68 -55 79 -15 18
-15 25 -3 68 12 40 22 52 67 81 29 19 64 51 76 72 28 46 115 131 148 145 13 5
65 10 115 10 51 1 106 5 122 9 51 13 71 11 99 -11z m-565 -73 c39 -18 36 -34
-18 -88 -50 -50 -51 -50 -97 -43 -65 9 -73 14 -80 41 -9 36 14 63 76 89 54 24
72 24 119 1z m-363 -54 c-8 -16 -22 -34 -30 -41 -9 -8 -16 -21 -16 -30 0 -10
-6 -26 -14 -36 -13 -18 -14 -18 -47 3 -39 24 -65 60 -52 73 4 4 24 10 43 12
19 2 51 14 70 25 50 31 64 29 46 -6z m-326 -10 c0 -11 -50 -57 -77 -71 -32
-17 -43 -14 -43 12 0 32 27 54 70 60 19 2 38 5 43 5 4 1 7 -2 7 -6z m528 -102
c17 -11 32 -24 32 -29 0 -4 -19 -26 -42 -47 -97 -89 -160 -106 -187 -50 -22
46 -5 76 64 113 70 38 89 40 133 13z m-460 -40 c-48 -55 -74 -63 -84 -25 -9
38 -1 48 47 61 81 22 85 19 37 -36z m-208 21 c0 -18 -45 -79 -67 -91 -28 -16
-43 -6 -43 29 0 32 15 48 57 61 38 11 53 12 53 1z m-241 -49 c-13 -16 -32 -44
-41 -61 -21 -37 -31 -39 -63 -6 -31 31 -31 40 1 62 25 16 115 44 123 37 2 -2
-7 -16 -20 -32z m670 -22 c4 -33 -25 -85 -56 -99 -14 -7 -44 -14 -67 -17 -49
-7 -69 9 -64 52 2 21 15 34 63 60 73 40 118 42 124 4z m-269 -55 c23 -27 2
-63 -67 -115 -73 -55 -83 -58 -105 -32 -45 51 -25 100 56 138 59 27 98 30 116
9z m580 -50 c12 -19 42 -52 67 -74 39 -35 44 -44 38 -68 -7 -32 -32 -63 -50
-63 -6 0 -24 -14 -41 -31 -16 -17 -52 -41 -79 -54 -46 -20 -64 -38 -102 -100
-27 -44 -36 -72 -39 -115 -1 -25 -3 -46 -3 -48 -3 -9 -191 189 -204 214 -34
68 -32 85 23 143 27 30 52 61 54 70 2 9 7 29 10 44 7 31 58 67 96 67 14 0 54
11 90 24 94 34 114 33 140 -9z m-850 -11 c0 -7 -7 -31 -16 -53 -12 -31 -26
-45 -60 -62 -54 -26 -74 -20 -74 21 0 47 17 69 72 95 52 24 78 24 78 -1z
m-296 -11 c-13 -53 -22 -69 -48 -83 -23 -12 -29 -12 -42 2 -13 13 -14 20 -4
39 16 32 61 69 83 69 14 0 16 -5 11 -27z m-1854 -21 c0 -32 -17 -48 -37 -36
-23 14 -28 41 -13 59 15 18 50 2 50 -23z m1390 23 c0 -9 -44 -91 -58 -107 -31
-37 -80 -10 -68 37 7 29 71 75 103 75 13 0 23 -2 23 -5z m-268 -74 c-10 -21
-32 -55 -49 -77 -27 -32 -34 -36 -43 -24 -15 23 -12 93 5 118 18 25 74 44 92
30 9 -7 7 -18 -5 -47z m488 4 c0 -55 -12 -63 -50 -33 -36 29 -37 41 -4 67 36
29 54 18 54 -34z m-706 36 c3 -5 -8 -26 -24 -46 -17 -21 -30 -47 -30 -57 0
-11 -12 -32 -27 -47 -16 -15 -33 -35 -38 -45 -9 -16 -13 -13 -34 24 -26 46
-23 93 7 130 28 34 132 64 146 41z m1677 -1 c10 -6 19 -14 19 -18 0 -4 -30
-39 -67 -77 -68 -70 -162 -135 -194 -135 -32 0 -49 29 -49 81 0 60 10 70 122
121 84 38 134 46 169 28z m-2837 -6 c23 -9 20 -23 -4 -17 -11 3 -20 9 -20 14
0 11 3 11 24 3z m1 -54 c10 -11 15 -23 12 -26 -10 -10 -35 3 -47 25 -15 28 10
29 35 1z m325 -9 c0 -6 -5 -13 -10 -16 -15 -9 -43 3 -35 15 8 13 45 13 45 1z
m-385 -12 c4 -6 -2 -19 -13 -29 -11 -11 -26 -27 -34 -38 -36 -49 -103 -75
-138 -52 -11 7 -3 10 28 10 41 0 44 2 62 44 25 59 77 95 95 65z m505 -9 c0
-21 -33 -29 -45 -10 -9 15 4 30 26 30 12 0 19 -7 19 -20z m2042 -45 c-6 -55
-36 -98 -121 -173 -80 -72 -85 -74 -125 -69 -28 4 -48 14 -65 33 -24 29 -24
26 -2 134 12 61 47 90 109 91 26 0 65 4 87 8 22 4 58 7 80 7 38 -1 40 -2 37
-31z m-1595 -12 c0 -16 3 -45 7 -65 9 -47 -2 -48 -31 -5 -22 32 -30 77 -16 90
17 18 40 6 40 -20z m3083 18 c0 -5 -15 -20 -32 -33 -39 -26 -43 -30 -84 -62
-26 -21 -33 -36 -42 -92 -6 -37 -9 -71 -6 -76 3 -5 3 -16 0 -25 -5 -13 -19 -4
-67 43 -86 85 -87 85 -31 125 57 41 220 127 245 128 9 1 17 -3 17 -8z m-1859
-37 c5 -3 9 -13 9 -23 0 -21 -37 -99 -58 -123 -14 -17 -12 -18 25 -18 32 0 47
-7 77 -36 l38 -36 -29 -32 c-16 -17 -41 -47 -56 -68 -19 -25 -55 -51 -122 -85
-120 -61 -127 -58 -137 52 -8 86 -3 101 45 153 31 32 31 33 14 61 -30 51 -23
73 41 125 53 44 60 47 100 42 24 -3 48 -8 53 -12z m-2041 -20 c0 -16 -55 -74
-71 -74 -26 0 -24 26 6 55 21 22 65 35 65 19z m1410 -39 c0 -31 -41 -75 -70
-75 -30 0 -25 36 9 71 37 36 61 38 61 4z m-269 -30 c-5 -61 -17 -83 -57 -100
-20 -8 -38 -15 -40 -15 -8 0 -3 90 6 115 10 27 42 45 75 42 17 -2 19 -8 16
-42z m-1281 21 c0 -18 -31 -29 -54 -20 -32 12 -14 32 32 33 13 1 22 -5 22 -13z
m570 10 c0 -2 -3 -12 -6 -20 -5 -13 -9 -14 -20 -5 -20 16 -17 29 6 29 11 0 20
-2 20 -4z m2314 -96 c59 -62 76 -86 76 -109 0 -38 -41 -86 -85 -101 -20 -6
-40 -21 -46 -32 -6 -11 -13 -17 -16 -14 -11 11 -112 -75 -240 -204 -24 -24
-47 -57 -50 -72 -3 -15 -9 -28 -13 -28 -5 0 -24 21 -43 48 -20 26 -54 65 -77
87 l-42 40 15 -40 c23 -60 29 -95 17 -95 -7 0 -7 -6 0 -20 9 -17 6 -25 -22
-50 -31 -29 -82 -50 -119 -50 -33 0 -85 -30 -124 -70 -22 -23 -48 -45 -57 -48
-9 -4 -51 -40 -92 -81 -73 -71 -93 -109 -66 -126 14 -9 12 -25 -2 -25 -7 0
-28 27 -47 60 -18 32 -82 110 -142 172 -60 62 -109 117 -109 122 0 5 15 26 33
46 17 21 41 53 52 71 13 21 44 47 85 69 36 20 89 54 118 77 38 31 65 43 100
48 26 4 77 15 114 26 36 10 77 19 91 19 23 0 115 -63 132 -90 3 -5 10 -10 15
-10 5 0 -7 28 -26 61 -47 84 -50 102 -25 138 12 16 21 34 21 40 0 25 49 61 82
61 34 0 143 57 200 105 16 14 39 25 51 26 12 0 38 7 57 14 19 7 51 14 71 14
33 1 44 -7 113 -79z m-2692 19 c-18 -16 -39 -29 -47 -29 -28 0 -15 -28 17 -35
27 -6 34 -3 51 19 19 27 41 32 66 17 11 -7 9 -14 -14 -35 -15 -14 -36 -26 -46
-26 -25 0 -24 -22 1 -38 11 -7 20 -20 20 -31 0 -10 8 -26 19 -35 10 -9 22 -31
27 -49 l8 -32 3 32 c5 41 35 60 69 44 34 -15 30 -39 -11 -58 -19 -9 -35 -24
-36 -32 0 -9 -2 -26 -3 -39 -4 -34 30 -72 64 -72 34 0 44 -12 36 -46 -5 -19
-13 -24 -36 -24 -17 0 -30 -4 -30 -10 0 -5 4 -10 9 -10 20 0 42 -33 37 -55 -4
-17 1 -27 19 -39 30 -20 32 -46 5 -69 -22 -19 -25 -34 -11 -70 8 -20 6 -29
-10 -43 -15 -14 -19 -26 -15 -49 8 -41 -13 -70 -42 -61 -26 9 -38 46 -23 75 9
15 7 30 -5 61 -15 37 -15 44 -1 83 9 23 17 51 20 62 3 16 6 12 14 -15 6 -19
12 -28 12 -19 1 9 -12 42 -28 75 -15 32 -34 86 -40 119 -19 97 -40 153 -79
213 -59 90 -119 168 -146 190 -36 27 -33 34 13 31 26 -2 46 3 58 13 27 25 66
38 78 26 7 -6 -1 -19 -23 -39z m1696 25 c27 -19 28 -43 2 -94 -23 -45 -45 -60
-89 -60 -38 0 -47 15 -27 45 10 15 14 35 10 53 -5 24 -1 33 21 51 33 25 53 26
83 5z m-835 -6 c-4 -7 -10 -38 -13 -68 -6 -69 -26 -64 -23 5 2 33 8 54 20 63
9 6 18 12 21 12 2 0 0 -6 -5 -12z m2647 -63 c0 -17 -17 -38 -45 -55 -18 -11
-43 -36 -56 -55 -13 -19 -37 -39 -54 -45 -16 -6 -47 -27 -68 -48 -30 -30 -41
-35 -55 -26 -25 16 -42 6 -42 -25 0 -20 -7 -31 -24 -39 -58 -26 -68 -94 -27
-182 22 -48 27 -80 11 -80 -5 0 -14 6 -19 13 -6 6 -26 31 -46 54 -48 56 -145
186 -145 196 0 4 19 19 43 32 23 14 113 68 199 119 227 137 287 167 310 155
10 -5 18 -11 18 -14z m-4402 -45 c17 -11 32 -22 32 -25 0 -9 -104 6 -115 17
-6 6 -5 12 5 18 23 14 42 12 78 -10z m4112 15 c0 -2 -20 -18 -45 -35 -25 -17
-45 -27 -45 -23 0 5 19 21 42 36 43 28 48 30 48 22z m-3070 -40 c7 -9 11 -17
9 -18 -2 -2 -17 -13 -33 -25 -37 -28 -44 -28 -58 3 -8 19 -8 28 2 40 16 19 64
19 80 0z m1140 -51 c49 -20 53 -41 23 -123 -13 -38 -23 -47 -71 -69 l-55 -25
-29 32 c-44 50 -35 133 20 178 32 27 58 29 112 7z m409 -2 c45 -36 2 -121
-125 -249 -28 -29 -57 -53 -62 -53 -15 0 -82 70 -92 95 -9 24 24 127 48 148
14 12 178 74 203 76 4 1 17 -7 28 -17z m-2621 -1 c23 -14 10 -46 -19 -49 -32
-4 -45 21 -23 43 18 17 24 18 42 6z m207 -31 c5 -17 -9 -60 -20 -60 -2 0 -3
18 -2 40 1 43 12 52 22 20z m-297 -43 c2 -10 -4 -27 -12 -36 -13 -14 -14 -24
-6 -45 14 -38 12 -154 -4 -199 -19 -52 -42 -75 -84 -83 -19 -4 -46 -13 -60
-20 -32 -16 -53 -6 -87 44 -42 61 -29 144 32 198 19 16 44 48 56 69 14 24 40
48 72 66 56 31 88 33 93 6z m128 -29 c-44 -152 -47 -174 -44 -308 3 -132 3
-135 -19 -138 -35 -5 -53 43 -54 140 -1 87 20 196 47 251 19 37 53 77 67 77 5
0 6 -10 3 -22z m1104 -33 c24 -29 -18 -83 -54 -69 -18 7 -31 47 -22 69 7 19
60 20 76 0z m805 -49 c18 -13 19 -18 6 -77 -7 -35 -14 -77 -15 -93 -2 -44 -27
-54 -65 -26 -41 28 -54 63 -46 117 12 79 69 117 120 79z m-325 -26 c13 -24 5
-41 -15 -34 -26 10 -30 54 -5 54 5 0 14 -9 20 -20z m634 -32 c21 -29 20 -54 0
-62 -11 -4 -14 -13 -11 -27 4 -15 0 -23 -14 -26 -21 -6 -26 -42 -7 -61 22 -22
-94 -114 -184 -145 -46 -15 -48 -15 -58 3 -5 10 -10 38 -10 62 0 38 6 49 54
100 30 31 57 70 61 86 7 34 37 58 99 77 55 18 53 18 70 -7z m1599 -10 c26 -34
57 -92 57 -104 0 -4 -13 5 -30 21 -35 34 -47 28 -32 -15 12 -34 7 -60 -12 -60
-7 0 -23 -11 -36 -25 -13 -14 -29 -25 -36 -25 -15 0 -67 -73 -78 -108 -9 -26
-42 -48 -48 -30 -6 18 -37 1 -48 -26 -12 -33 -48 -56 -88 -56 -26 0 -43 -9
-69 -35 l-36 -36 23 -24 c13 -14 31 -27 41 -30 25 -8 31 -32 19 -77 -9 -33 -8
-49 9 -99 12 -32 21 -73 21 -89 0 -17 7 -47 15 -67 18 -43 18 -43 1 -43 -12 0
-106 193 -106 219 0 27 -53 113 -130 211 -109 139 -111 144 -74 180 29 28 315
210 476 302 100 58 128 60 161 16z m-2333 -39 c0 -10 -7 -19 -15 -19 -15 0
-21 31 -9 43 11 10 24 -3 24 -24z m175 -19 c7 -12 -5 -60 -15 -60 -12 0 -19
26 -13 49 6 22 18 27 28 11z m627 -240 c7 -11 17 -20 23 -20 19 0 115 -108
115 -128 0 -12 4 -23 9 -26 5 -3 12 -17 15 -30 7 -29 -31 -90 -105 -169 -27
-29 -49 -60 -49 -69 0 -10 2 -18 5 -18 6 0 157 81 175 94 13 10 13 9 0 -8 -8
-11 -118 -87 -245 -171 -315 -207 -365 -235 -365 -200 0 27 -50 104 -85 130
-46 36 -50 31 -16 -17 16 -24 33 -60 37 -81 3 -21 14 -42 25 -48 11 -5 19 -14
19 -20 0 -12 -199 -142 -306 -199 -43 -23 -110 -61 -147 -83 -55 -32 -174 -74
-183 -64 -2 1 27 25 64 52 36 28 68 56 70 63 5 16 -27 15 -69 -2 -19 -7 -68
-19 -109 -26 -41 -7 -94 -21 -118 -31 -52 -23 -80 -24 -101 -5 -20 17 -61 4
-61 -19 0 -23 -20 -55 -64 -102 -63 -67 -120 -67 -178 1 -33 39 -33 64 1 107
18 21 39 56 47 77 22 51 89 119 149 148 77 38 137 75 189 118 l47 39 29 -31
c31 -35 46 -38 83 -21 24 11 47 47 47 73 0 15 55 67 97 91 17 10 34 26 36 36
6 23 56 37 67 19 5 -9 17 -10 36 -5 56 15 114 14 169 -4 30 -10 55 -16 55 -12
0 3 -19 17 -41 31 -40 25 -69 64 -69 94 0 9 25 41 55 72 30 32 55 63 55 70 0
7 7 17 16 22 9 5 15 13 15 18 0 5 8 9 19 9 11 0 20 4 20 8 -1 9 81 81 129 113
20 13 46 31 58 40 13 9 58 27 100 40 43 12 103 32 133 43 70 26 87 26 102 1z
m-552 -10 c0 -6 -8 -17 -19 -26 -15 -14 -17 -21 -8 -45 6 -16 15 -29 19 -29
16 0 7 -20 -23 -55 -65 -74 -102 -23 -54 74 15 31 35 64 43 74 16 19 42 23 42
7z m-750 -47 c0 -22 -17 -50 -25 -42 -6 7 11 59 20 59 3 0 5 -8 5 -17z m440
-17 c0 -7 -7 -19 -15 -26 -12 -10 -15 -9 -15 7 0 11 3 23 7 26 11 12 23 8 23
-7z m1715 -38 c67 -80 83 -172 33 -199 -15 -8 -17 -14 -9 -22 6 -6 11 -17 11
-25 0 -23 -40 -103 -55 -109 -8 -3 -13 -9 -10 -13 3 -5 -4 -24 -15 -42 -11
-18 -20 -41 -20 -50 0 -10 -13 -24 -30 -33 -23 -12 -30 -22 -30 -45 0 -26 -29
-60 -52 -60 -19 0 -6 20 17 26 14 3 25 13 25 21 0 10 -7 14 -18 11 -11 -3 -30
1 -43 8 -13 7 -34 10 -46 7 -41 -10 -17 28 26 42 29 9 101 73 101 90 0 7 9 15
20 18 13 3 18 10 14 21 -3 9 -1 16 5 16 15 0 14 18 -6 67 -20 49 -34 53 -60
20 -10 -13 -37 -36 -60 -50 -23 -14 -44 -31 -47 -36 -4 -5 -28 -17 -54 -25
-31 -11 -71 -38 -117 -81 -38 -36 -76 -65 -82 -65 -19 0 -16 -10 16 -55 17
-24 34 -39 44 -37 10 2 17 -4 17 -11 0 -8 7 -18 16 -21 20 -8 54 2 54 15 0 5
7 9 15 9 23 0 30 -29 12 -47 -13 -13 -13 -19 -1 -42 8 -14 14 -37 14 -51 1
-14 7 -52 15 -85 9 -39 11 -63 4 -70 -18 -18 -43 9 -84 91 -68 132 -138 245
-189 303 -56 63 -108 143 -102 157 6 16 87 76 136 101 19 10 72 44 117 75 45
32 106 69 135 84 29 15 66 36 82 47 53 37 131 77 153 77 12 0 33 -14 48 -32z
m-245 4 c0 -5 -12 -14 -27 -21 l-28 -12 25 21 c29 22 30 23 30 12z m-4032 -14
c19 -19 14 -43 -13 -72 -29 -31 -41 -30 -68 7 -19 24 -19 27 -3 51 18 28 63
35 84 14z m2128 -25 c27 -36 10 -103 -26 -103 -26 0 -54 43 -45 69 8 25 32 51
47 51 6 0 17 -8 24 -17z m-2248 -56 c6 -29 -6 -63 -33 -96 -23 -27 -29 -29
-55 -20 -39 14 -46 42 -21 83 33 53 101 74 109 33z m4022 19 c0 -3 -15 -14
-32 -26 l-33 -22 28 26 c27 25 37 31 37 22z m-1694 -61 c-7 -29 -26 -34 -26
-7 0 18 20 45 28 37 2 -2 2 -16 -2 -30z m-946 -65 c59 -69 70 -90 50 -90 -16
0 -110 91 -126 122 -18 34 -18 38 1 38 8 0 41 -32 75 -70z m-1540 2 c0 -27
-36 -87 -62 -104 -23 -14 -47 -8 -63 16 -13 20 -14 29 -4 48 19 38 61 67 97
68 29 0 32 -3 32 -28z m2420 9 c21 -41 -31 -101 -57 -66 -13 19 -8 41 15 68
19 22 29 22 42 -2z m-2142 -27 c4 -26 -49 -118 -69 -122 -18 -3 -69 44 -69 64
0 7 14 29 31 49 27 31 37 36 68 33 28 -2 37 -8 39 -24z m97 -58 c15 -22 15
-27 0 -55 -18 -35 -30 -38 -57 -14 -24 21 -23 48 2 73 26 26 36 25 55 -4z
m-719 -1 c4 -8 -9 -36 -28 -62 -19 -27 -37 -56 -41 -65 -11 -30 -37 -20 -54
19 -13 33 -13 41 -1 63 14 26 71 60 101 60 10 0 20 -7 23 -15z m465 3 c5 -37
-3 -64 -27 -95 -35 -46 -50 -50 -85 -24 l-29 22 -10 -23 c-32 -77 -94 -128
-123 -99 -7 7 -17 -5 -33 -39 -13 -28 -40 -67 -60 -88 -20 -20 -45 -56 -56
-79 -23 -48 -45 -55 -54 -18 -10 40 3 72 40 95 23 14 37 31 41 53 12 53 32 83
65 97 17 7 44 32 61 56 34 50 59 66 97 63 21 -2 38 8 73 44 46 46 97 64 100
35z m2196 -35 c-21 -22 -32 -11 -17 17 9 16 15 19 23 11 8 -8 7 -16 -6 -28z
m-1839 -29 c40 -28 21 -101 -25 -92 -9 2 -24 15 -32 29 -13 24 -13 29 2 53 20
30 25 31 55 10z m1776 -23 c10 -15 -4 -39 -25 -44 -27 -7 -34 11 -13 34 19 21
30 24 38 10z m-1948 -27 c10 -41 -24 -79 -71 -79 -30 0 -43 -6 -64 -32 -30
-37 -74 -44 -89 -16 -8 14 -14 11 -42 -21 -26 -30 -38 -36 -57 -31 -22 5 -27
-1 -55 -65 -17 -38 -37 -70 -43 -70 -21 0 -38 29 -37 61 1 44 28 79 73 97 21
8 39 19 39 23 0 22 54 69 79 69 15 0 45 13 67 29 37 27 122 57 171 60 16 1 24
-6 29 -25z m3558 -28 c12 -14 35 -48 50 -77 l29 -52 -32 -29 c-17 -16 -31 -34
-31 -39 0 -6 -15 -25 -34 -42 -18 -18 -45 -49 -60 -71 -21 -31 -27 -35 -32
-22 -4 11 -13 15 -23 11 -9 -4 -29 -8 -46 -11 -44 -6 -113 -45 -119 -68 -8
-32 8 -40 59 -27 35 9 51 9 61 1 14 -12 50 -4 122 26 41 17 52 12 52 -27 0
-31 -1 -33 -66 -105 -42 -45 -56 -80 -58 -143 -1 -46 -44 -72 -118 -73 -64 0
-82 18 -98 100 -22 112 -43 168 -81 219 -58 78 -64 94 -45 131 9 18 33 41 54
51 20 11 31 20 24 21 -9 0 -10 5 -2 19 10 21 158 122 207 143 15 7 48 26 73
44 73 51 83 53 114 20z m-3469 -26 c15 -17 16 -24 5 -49 -17 -43 -45 -64 -84
-65 -29 -1 -40 -8 -65 -43 -41 -57 -67 -70 -92 -47 -10 9 -19 27 -19 40 0 28
58 80 100 89 17 4 38 18 47 32 15 23 68 63 84 63 3 0 14 -9 24 -20z m2185 -10
c0 -11 -51 -60 -62 -60 -5 0 -8 7 -8 15 0 8 6 15 13 15 7 0 18 9 25 20 13 21
32 27 32 10z m-3022 -21 c1 -8 -12 -38 -31 -65 -18 -27 -36 -57 -40 -66 -9
-24 -23 -23 -41 4 -28 40 -20 73 26 113 44 37 80 43 86 14z m947 -59 c17 -19
17 -21 -9 -60 -28 -43 -54 -51 -80 -24 -24 24 -19 50 15 78 37 31 50 32 74 6z
m1555 5 c0 -8 -7 -15 -15 -15 -26 0 -18 20 13 29 1 1 2 -6 2 -14z m376 -33
c-22 -23 -29 -10 -9 18 11 16 18 19 21 11 2 -7 -3 -20 -12 -29z m-476 -27 c0
-9 -9 -15 -22 -15 -22 1 -23 1 -4 15 25 19 26 19 26 0z m-1846 -17 c-12 -42
-46 -100 -70 -125 -20 -20 -28 -22 -39 -13 -48 40 15 160 82 160 31 0 34 -2
27 -22z m506 -8 c19 -19 19 -23 6 -49 -9 -16 -23 -31 -31 -35 -29 -11 -65 20
-65 55 0 14 39 49 55 49 8 0 24 -9 35 -20z m1155 10 c7 -11 -71 -70 -92 -70
-20 0 -16 18 6 25 11 3 26 17 35 30 17 26 40 33 51 15z m605 4 c0 -18 -24 -44
-40 -44 -22 0 -26 20 -8 38 12 12 48 17 48 6z m-1245 -24 c17 -19 17 -20 1
-20 -23 0 -56 18 -56 30 0 17 36 11 55 -10z m-755 -13 c0 -34 -58 -116 -86
-123 -31 -8 -54 11 -54 46 0 38 68 100 110 100 25 0 30 -4 30 -23z m1009 14
c22 -14 2 -31 -37 -31 -43 0 -68 13 -58 29 8 13 75 14 95 2z m-310 -27 c39
-32 39 -49 1 -69 -16 -9 -30 -22 -30 -30 0 -39 -88 -36 -109 4 -11 20 -4 34
26 50 14 7 20 17 17 26 -19 49 45 61 95 19z m511 7 c0 -9 -41 -23 -48 -16 -2
2 -1 8 3 14 8 13 45 15 45 2z m-837 -25 c26 -20 22 -64 -8 -78 -37 -17 -75 3
-75 40 0 48 43 68 83 38z m462 -17 c0 -20 -39 -23 -55 -4 -12 14 -12 18 0 25
17 11 55 -3 55 -21z m-1393 -3 c7 -35 -41 -121 -67 -121 -29 0 -30 35 -4 87
32 63 63 78 71 34z m2452 2 c-29 -35 -47 -47 -68 -48 -11 0 -36 -17 -56 -39
-20 -21 -46 -44 -58 -50 -25 -13 -62 -14 -62 -2 0 12 54 53 100 76 19 10 52
33 73 51 22 21 48 34 64 34 26 0 26 0 7 -22z m-1376 -10 c7 -6 12 -23 10 -37
-6 -54 -98 -30 -98 25 0 12 6 25 13 28 16 6 58 -3 75 -16z m557 4 c-3 -3 -11
0 -18 7 -9 10 -8 11 6 5 10 -3 15 -9 12 -12z m-1955 -1 c0 -17 -83 -153 -96
-158 -32 -12 -72 53 -53 88 16 31 89 79 121 79 15 0 28 -4 28 -9z m1001 -25
c9 -19 7 -30 -15 -64 -28 -44 -67 -63 -95 -45 -37 23 -20 78 36 114 38 25 61
24 74 -5z m1369 9 c-7 -8 -17 -15 -22 -15 -6 0 -5 7 2 15 7 8 17 15 22 15 6 0
5 -7 -2 -15z m2025 -15 c-21 -23 -35 -26 -35 -7 0 13 41 38 49 31 2 -2 -4 -13
-14 -24z m-3684 -10 c-8 -63 -58 -113 -87 -89 -23 19 -16 58 16 90 38 38 77
37 71 -1z m1069 0 c28 -15 14 -38 -26 -46 -19 -3 -38 -12 -42 -19 -4 -6 -18
-18 -31 -25 -20 -10 -27 -9 -50 8 -15 11 -26 29 -26 43 0 22 5 24 62 29 34 3
65 8 69 13 10 10 22 9 44 -3z m94 4 c24 -9 19 -24 -8 -24 -26 0 -40 12 -29 24
8 8 17 8 37 0z m1972 -49 c30 -46 35 -61 30 -88 -4 -17 -9 -50 -12 -72 -6 -41
-21 -60 -151 -187 -55 -53 -63 -68 -38 -68 18 0 19 -11 3 -45 -6 -14 -20 -25
-31 -25 -16 0 -18 -5 -13 -25 6 -22 2 -28 -24 -38 -36 -16 -161 -12 -198 5
-43 21 -43 98 -1 137 23 21 17 50 -6 31 -10 -8 -19 0 -39 34 -36 62 -55 79
-71 66 -11 -9 -10 -16 3 -40 15 -27 15 -32 -1 -77 -9 -26 -20 -70 -24 -98 -8
-65 -41 -106 -124 -156 -62 -37 -69 -39 -152 -39 -96 0 -127 16 -127 63 0 13
-9 50 -20 82 -11 32 -20 66 -20 75 0 23 30 42 112 68 87 28 333 143 408 190
32 20 112 69 179 107 67 39 151 89 188 113 36 23 72 42 79 42 7 0 29 -25 50
-55z m-3379 10 c3 -9 -10 -46 -28 -83 -38 -75 -64 -87 -87 -40 -11 24 -11 33
4 63 29 62 96 98 111 60z m674 -11 c17 -16 17 -18 -6 -64 -27 -53 -39 -61 -72
-49 -51 19 -49 84 4 113 36 20 52 20 74 0z m835 4 c4 -6 -1 -17 -11 -25 -22
-15 -34 -16 -55 -3 -13 8 -12 11 5 24 24 18 51 20 61 4z m92 0 c18 -18 14 -28
-11 -28 -23 0 -47 17 -47 32 0 12 45 9 58 -4z m-1483 -46 c-17 -67 -85 -113
-85 -57 0 38 21 74 49 83 34 12 44 5 36 -26z m-379 13 c3 -8 -5 -38 -19 -67
-14 -29 -30 -65 -36 -80 -14 -38 -39 -35 -56 6 -11 25 -12 42 -4 69 16 61 100
113 115 72z m1652 -1 c35 -24 28 -51 -15 -63 -21 -6 -44 -11 -51 -11 -7 0 -15
-13 -18 -29 -11 -55 -98 -67 -128 -18 -17 27 24 57 79 57 39 0 42 2 38 24 -4
17 2 28 18 40 29 20 48 20 77 0z m-1008 -39 c0 -29 -54 -137 -81 -161 -18 -16
-20 -16 -39 1 -15 14 -20 31 -20 69 0 63 28 113 67 122 15 3 33 7 38 9 17 4
35 -16 35 -40z m650 24 c8 0 31 1 51 2 19 2 45 -4 57 -12 19 -14 20 -18 8 -34
-17 -23 -71 -23 -97 1 -18 16 -19 15 -28 -9 -20 -52 -112 -42 -119 13 -5 35
24 53 73 45 22 -4 47 -6 55 -6z m657 -6 c6 -16 -36 -28 -50 -14 -9 9 -8 14 3
21 19 12 42 9 47 -7z m-839 -30 c4 -25 -60 -93 -87 -93 -31 0 -54 35 -44 67
19 57 123 77 131 26z m730 3 c11 -11 11 -16 -3 -30 -22 -22 -68 -20 -89 3 -16
18 -16 20 6 35 25 18 63 14 86 -8z m-2001 -2 c8 -21 -32 -148 -52 -164 -22
-18 -55 21 -55 66 0 46 14 71 53 94 39 24 46 25 54 4z m268 -26 c-4 -18 -20
-58 -35 -88 -15 -30 -33 -77 -39 -105 -7 -27 -22 -65 -33 -83 -19 -31 -21 -32
-39 -16 -10 9 -21 35 -24 59 -9 53 12 97 55 115 27 11 30 17 30 55 0 52 30 95
67 95 23 0 24 -3 18 -32z m2229 22 c67 -25 -8 -146 -107 -172 -56 -15 -80 -5
-85 36 -3 27 -22 37 -22 12 0 -8 -12 -24 -27 -36 -23 -18 -37 -21 -76 -17 -27
2 -56 12 -65 21 -15 15 -15 18 5 37 16 17 37 23 95 26 64 5 82 10 143 48 96
58 101 60 139 45z m-164 -6 c0 -13 -35 -33 -57 -34 -27 0 -31 26 -5 33 27 7
62 8 62 1z m-1386 -26 c13 -18 13 -26 2 -53 -20 -48 -65 -115 -77 -115 -5 0
-21 12 -36 26 -20 20 -24 32 -19 55 8 39 40 81 74 96 37 16 39 16 56 -9z
m1235 13 c23 -15 2 -31 -39 -31 -44 0 -59 14 -33 29 22 13 53 14 72 2z m-2316
-15 c9 -23 -54 -146 -77 -152 -12 -3 -29 -22 -38 -42 -10 -20 -33 -54 -51 -76
-27 -31 -37 -37 -56 -31 -57 18 -42 86 35 152 32 28 56 57 59 75 14 61 111
118 128 74z m761 -25 c-9 -36 -19 -53 -43 -75 -26 -23 -47 -16 -54 20 -7 37
48 96 81 87 18 -4 21 -10 16 -32z m1256 -1 l25 -20 -24 -20 c-42 -36 -121 -23
-121 20 0 43 76 55 120 20z m-2280 -39 c-1 -20 -66 -110 -86 -118 -23 -8 -44
16 -44 52 0 26 7 37 38 58 59 39 92 43 92 8z m2473 17 c14 -11 14 -16 2 -31
-21 -28 -85 -33 -115 -9 -21 17 -22 22 -11 36 16 20 99 22 124 4z m-1576 -24
c8 -20 -60 -148 -81 -152 -8 -2 -22 8 -31 22 -36 54 11 146 75 146 19 0 33 -6
37 -16z m610 -1 c9 -22 -35 -101 -70 -127 -26 -19 -27 -19 -47 -1 -32 29 -24
71 23 123 25 27 84 31 94 5z m457 -2 c16 -18 16 -21 -3 -59 -28 -56 -86 -69
-128 -30 -27 25 -29 54 -7 86 21 30 112 32 138 3z m-1227 -46 c-8 -54 -45
-145 -60 -145 -26 0 -47 34 -47 78 0 37 6 50 34 78 19 19 44 34 56 34 21 0 22
-3 17 -45z m1027 39 c24 -9 19 -49 -9 -83 -33 -39 -60 -47 -90 -27 -31 20 -35
81 -7 102 18 14 79 18 106 8z m-150 -40 c18 -47 -16 -114 -58 -114 -52 0 -62
56 -17 101 32 32 65 38 75 13z m547 6 c23 -13 24 -41 4 -84 -20 -42 -63 -66
-118 -66 -41 0 -46 -3 -55 -29 -15 -42 -54 -65 -88 -54 -80 27 -40 125 51 125
24 0 35 5 35 14 0 28 30 73 58 88 32 18 85 20 113 6z m-1691 -29 c-1 -31 -66
-176 -79 -176 -8 0 -22 16 -33 35 -31 57 -6 129 55 155 36 15 57 10 57 -14z
m1865 15 c24 -10 35 -22 35 -35 0 -25 -33 -61 -57 -62 -71 -5 -116 19 -111 59
5 47 68 65 133 38z m-1276 -30 c18 -22 -55 -146 -85 -146 -32 0 -56 27 -48 54
27 86 98 135 133 92z m159 -33 c4 -24 -45 -111 -71 -127 -28 -17 -60 27 -51
68 16 77 59 117 99 91 11 -7 21 -21 23 -32z m1310 20 c17 -8 32 -20 32 -25 0
-24 -25 -51 -63 -69 -54 -24 -108 -24 -138 0 l-24 19 30 43 c43 61 84 69 163
32z m-2211 0 c6 -15 -20 -73 -68 -152 l-21 -35 -19 25 c-11 15 -19 41 -19 68
0 36 6 49 34 77 37 37 82 46 93 17z m2530 -19 c11 -28 -10 -46 -98 -85 -66
-29 -99 -51 -146 -98 -34 -34 -68 -61 -76 -61 -16 0 -47 67 -47 104 0 22 33
46 64 46 16 0 52 39 60 67 6 20 60 42 72 30 3 -3 17 -1 32 3 15 5 51 9 80 9
40 1 54 -3 59 -15z m-1492 -24 c17 -19 17 -25 6 -58 -21 -58 -49 -92 -77 -92
-56 0 -54 105 3 149 32 26 45 26 68 1z m470 -24 c19 -14 19 -15 0 -62 -25 -60
-61 -84 -99 -66 -22 10 -26 18 -26 57 0 40 4 47 33 65 38 23 66 25 92 6z
m-917 -44 c6 -64 -62 -120 -88 -72 -21 40 33 117 75 106 6 -1 11 -17 13 -34z
m596 23 c14 -14 14 -20 -1 -58 -29 -75 -58 -94 -95 -60 -26 23 -22 66 8 102
28 34 63 40 88 16z m153 7 c27 -17 19 -75 -18 -117 -35 -40 -58 -44 -83 -16
-47 52 43 170 101 133z m618 -12 c53 -44 -50 -151 -131 -135 -28 5 -38 2 -57
-18 -38 -40 -74 -59 -99 -52 -33 11 -58 35 -58 58 0 29 73 94 120 107 23 6 62
22 88 36 50 27 108 28 137 4z m-1483 -25 c-5 -49 -31 -121 -51 -139 -17 -16
-20 -16 -35 -1 -24 24 -30 62 -17 106 13 44 45 71 81 67 21 -3 25 -7 22 -33z
m-141 5 c16 0 10 -56 -12 -114 -23 -60 -37 -68 -69 -36 -32 32 -27 94 10 132
19 18 36 28 46 24 9 -3 20 -6 25 -6z m1749 -21 c56 -12 52 0 35 -110 -10 -67
-102 -127 -178 -117 -22 2 -30 -3 -45 -32 -11 -20 -42 -50 -72 -70 l-54 -35
55 -5 c46 -4 54 -8 57 -27 4 -26 -53 -86 -96 -101 -47 -16 -78 4 -74 48 l3 35
-18 -26 c-10 -15 -29 -36 -43 -47 -30 -24 -23 -36 13 -23 20 8 31 6 47 -7 19
-15 20 -21 10 -47 -25 -66 -101 -122 -144 -105 -30 11 -30 14 -15 76 11 41 10
47 -10 68 -27 29 -27 76 0 110 22 28 88 66 114 66 14 0 16 7 10 38 -10 63 18
117 79 152 28 17 63 30 77 30 34 0 139 69 164 109 23 36 18 34 85 20z m-1870
-21 c0 -30 -50 -128 -72 -142 -26 -16 -58 18 -58 62 0 46 54 102 99 102 26 0
31 -4 31 -22z m-156 -17 c4 -5 -8 -46 -25 -90 -24 -59 -37 -81 -50 -81 -36 0
-61 67 -43 115 8 20 73 65 96 65 9 0 19 -4 22 -9z m4339 2 c4 -3 2 -12 -3 -19
-14 -16 -50 -6 -43 12 5 14 35 19 46 7z m-3610 -24 c16 -25 -40 -133 -70 -137
-48 -7 -56 95 -12 139 24 24 67 22 82 -2z m-129 3 c11 -18 -16 -83 -39 -98
-54 -35 -75 20 -29 75 25 30 57 40 68 23z m2157 -23 c21 -23 36 -164 20 -183
-6 -7 -39 -26 -74 -42 -52 -24 -78 -29 -157 -32 -52 -1 -100 1 -106 5 -6 4
-14 54 -18 110 l-8 102 27 17 c16 10 41 16 63 14 69 -5 91 -3 124 12 67 31
100 30 129 -3z m-2913 8 c12 -14 11 -17 -43 -100 -16 -25 -35 -47 -41 -47 -22
0 -39 33 -38 73 1 31 8 46 28 64 30 25 77 30 94 10z m4169 -19 c0 -18 4 -45 8
-59 6 -22 -1 -34 -47 -82 -75 -79 -159 -117 -256 -117 -78 0 -124 16 -142 49
-12 23 12 99 37 119 20 14 93 16 93 2 0 -5 11 -10 24 -10 22 0 64 23 174 97
26 18 61 32 78 32 28 1 31 -2 31 -31z m-4347 7 c0 -19 -46 -111 -59 -120 -6
-3 -17 5 -26 18 -19 30 -8 65 31 96 31 25 54 27 54 6z m1188 3 c17 -17 15 -43
-7 -87 -30 -57 -45 -67 -70 -42 -25 25 -26 40 -7 85 20 49 59 69 84 44z m670
-36 c3 -26 -3 -39 -28 -62 -34 -32 -50 -36 -81 -20 -52 29 8 125 75 118 27 -3
31 -7 34 -36z m-1034 -8 c12 -31 6 -56 -24 -100 -36 -52 -70 -59 -88 -19 -23
51 33 131 94 134 7 1 15 -6 18 -15z m529 -5 c14 -23 -37 -129 -62 -129 -44 0
-55 62 -21 118 16 26 26 33 47 30 14 -2 31 -10 36 -19z m151 -8 c24 -26 12
-81 -24 -116 -53 -51 -93 -9 -70 73 16 60 60 80 94 43z m182 4 c10 -26 -6 -66
-39 -96 -32 -30 -52 -35 -76 -20 -18 12 -5 87 20 112 23 23 87 26 95 4z
m-1157 -44 c12 -8 13 -16 3 -49 -7 -22 -21 -51 -31 -64 -16 -19 -23 -21 -38
-12 -10 6 -19 25 -21 43 -3 24 4 38 27 61 32 32 38 35 60 21z m150 -5 c16 -19
6 -58 -33 -128 -33 -63 -47 -70 -70 -36 -21 29 -20 64 3 114 27 59 74 82 100
50z m-819 -16 c26 -26 14 -58 -44 -115 -26 -25 -49 -59 -56 -81 -15 -50 -62
-119 -80 -119 -22 0 -24 67 -5 106 10 18 26 41 36 52 14 15 19 36 19 74 0 44
5 59 25 78 30 31 77 33 105 5z m3900 7 c0 -7 9 -18 20 -24 16 -10 19 -23 18
-68 -2 -63 -15 -79 -113 -138 -102 -61 -209 -71 -255 -22 -17 18 -21 33 -18
76 3 45 7 55 28 66 14 7 79 37 145 67 118 54 175 68 175 43z m-1836 -3 c18 -7
22 -58 7 -96 -5 -13 -27 -36 -49 -52 -33 -22 -44 -26 -61 -17 -46 25 -37 96
17 141 36 30 56 35 86 24z m755 -8 c18 -22 3 -100 -25 -133 -21 -25 -31 -28
-99 -31 -69 -4 -79 -2 -101 19 -34 32 -30 55 14 78 20 11 57 34 82 50 49 34
109 41 129 17z m-1729 -16 c20 -38 -42 -140 -86 -140 -7 0 -18 10 -25 21 -14
27 3 91 32 120 25 25 65 25 79 -1z m-551 1 c20 -13 8 -76 -24 -117 -31 -40
-49 -43 -71 -9 -22 34 -10 79 29 110 35 27 45 29 66 16z m689 -33 c7 -7 12
-21 12 -31 0 -28 -47 -111 -72 -126 -19 -12 -23 -11 -35 5 -25 34 -13 112 22
147 19 20 56 22 73 5z m-1020 -30 c2 -9 -16 -45 -40 -80 -24 -35 -44 -64 -45
-66 -4 -9 -42 25 -47 42 -6 23 35 100 62 116 25 15 66 8 70 -12z m190 -5 c3
-21 -93 -163 -110 -163 -4 0 -14 10 -22 22 -45 64 20 172 99 165 22 -1 31 -8
33 -24z m1476 11 c12 -30 6 -44 -25 -60 -26 -13 -33 -14 -40 -2 -12 19 -11 22
12 52 23 29 44 34 53 10z m-486 -31 c12 -20 1 -62 -28 -107 -26 -44 -46 -50
-70 -26 -23 23 -25 58 -6 104 26 63 77 77 104 29z m1002 22 c0 -9 -7 -29 -15
-45 -12 -23 -22 -30 -45 -30 -17 0 -30 3 -30 6 0 9 22 48 38 67 19 21 52 22
52 2z m1059 -26 c34 -12 37 -19 19 -52 -6 -12 -10 -43 -9 -69 2 -57 -12 -69
-112 -94 -57 -14 -74 -15 -112 -4 -58 16 -77 39 -83 101 -6 60 5 72 60 63 30
-4 38 -2 47 14 22 40 126 63 190 41z m-2489 -44 c0 -39 -31 -110 -52 -117 -45
-17 -77 38 -58 98 13 40 33 53 78 54 30 0 32 -2 32 -35z m584 3 c14 -39 -30
-123 -64 -123 -53 0 -60 85 -13 137 24 27 65 20 77 -14z m181 12 c13 -21 -7
-70 -46 -112 -38 -42 -39 -43 -55 -23 -20 26 -11 92 18 122 22 24 72 31 83 13z
m-1057 -32 c20 -20 14 -52 -20 -102 -37 -57 -52 -64 -78 -41 -38 35 -19 113
34 139 38 19 48 20 64 4z m1243 -8 c51 -28 -20 -150 -87 -150 -78 0 -25 157
54 160 7 0 22 -5 33 -10z m-806 -44 c8 -23 4 -37 -20 -84 -45 -86 -95 -82 -95
7 0 51 20 84 60 100 34 13 43 9 55 -23z m1435 15 c0 -12 -57 -55 -84 -65 -12
-4 -26 0 -37 10 -41 37 -13 63 69 64 28 0 52 -4 52 -9z m430 -3 c0 -5 -4 -7
-9 -4 -5 3 -11 -1 -15 -9 -3 -8 -12 -15 -21 -15 -27 0 -16 -18 15 -22 43 -6
90 16 90 43 0 16 4 19 18 14 9 -4 23 -8 30 -8 16 0 16 -17 0 -17 -9 0 -9 -3 0
-12 19 -19 14 -44 -13 -77 -35 -41 -107 -64 -168 -52 -68 12 -77 23 -77 96 0
34 3 64 6 68 10 9 144 4 144 -5z m1324 -30 c19 -37 16 -43 -19 -34 -27 7 -34
33 -13 54 16 16 14 17 32 -20z m-3786 6 c29 -20 28 -45 -3 -95 -32 -49 -50
-57 -86 -36 -28 15 -28 15 -48 -19 -26 -43 -46 -51 -71 -29 -23 21 -26 72 -6
100 10 14 21 17 49 12 30 -5 38 -2 51 18 23 36 58 65 76 65 8 0 26 -7 38 -16z
m312 -12 c0 -42 -27 -74 -58 -70 -22 2 -28 9 -30 34 -4 39 19 64 59 64 25 0
29 -4 29 -28z m446 -17 c14 -55 -37 -165 -76 -165 -31 0 -43 26 -38 85 6 65
35 105 80 105 21 0 29 -6 34 -25z m-1202 -4 c27 -30 13 -60 -71 -160 -35 -41
-53 -80 -53 -114 0 -34 -15 -50 -39 -42 -25 7 -51 53 -51 88 0 31 96 224 118
237 28 16 78 12 96 -9z m2650 12 c4 -5 12 -8 18 -8 24 0 34 -34 18 -62 -21
-38 -144 -103 -196 -103 -51 0 -87 33 -82 76 3 27 6 29 49 29 39 0 52 6 87 38
40 35 87 49 106 30z m1332 -35 c-20 -101 -167 -132 -233 -48 -19 23 -15 48 9
55 22 8 139 21 197 24 33 1 33 0 27 -31z m-3789 5 c7 -17 -23 -80 -60 -126
-20 -24 -25 -26 -42 -14 -34 26 -14 130 29 147 34 14 66 11 73 -7z m1152 -3
c29 -15 33 -39 15 -89 -30 -81 -80 -116 -104 -72 -24 46 -3 133 39 156 32 17
29 17 50 5z m165 -52 c22 -31 20 -64 -5 -104 -25 -42 -48 -55 -70 -43 -41 22
-25 132 22 156 32 17 35 16 53 -9z m-2296 0 c27 -27 6 -112 -30 -124 -26 -8
-68 21 -68 47 0 21 59 89 77 89 5 0 14 -5 21 -12z m186 6 c9 -3 16 -12 16 -19
0 -20 -76 -113 -99 -120 -19 -6 -19 -6 2 -43 20 -37 20 -38 1 -102 -23 -75
-38 -83 -87 -46 -19 14 -37 26 -40 26 -4 0 -15 -17 -26 -37 -10 -21 -32 -48
-48 -59 -21 -16 -32 -36 -41 -73 -6 -29 -23 -68 -37 -89 -14 -20 -25 -45 -25
-54 0 -10 -10 -28 -22 -40 -24 -23 -58 -91 -58 -113 0 -7 -7 -18 -15 -25 -40
-33 -104 46 -91 113 6 33 63 97 85 97 5 0 34 37 64 83 43 64 58 96 67 147 18
100 29 128 57 150 32 25 63 25 95 0 l25 -19 30 42 c23 32 29 49 26 74 -7 48 3
76 34 95 29 18 60 22 87 12z m350 -12 c9 -28 -38 -152 -57 -152 -23 0 -47 34
-47 66 0 62 89 135 104 86z m2137 8 c32 -18 23 -55 -24 -105 -49 -51 -82 -58
-98 -21 -16 34 12 87 59 114 44 25 39 25 63 12z m-995 -35 c8 -30 -39 -135
-60 -135 -24 0 -66 51 -66 80 0 45 35 80 81 80 33 0 40 -4 45 -25z m1412 -2
c19 -26 14 -50 -14 -72 -70 -55 -145 18 -83 80 24 24 75 20 97 -8z m-1582 -18
c15 -20 6 -63 -19 -97 -28 -38 -45 -41 -73 -13 -52 52 -17 144 50 131 17 -3
36 -13 42 -21z m972 -11 c4 -39 -32 -86 -62 -82 -30 4 -34 56 -5 92 29 37 63
32 67 -10z m-1124 3 c23 -17 13 -57 -24 -97 -33 -35 -62 -38 -90 -10 -27 27
-25 43 11 85 33 38 71 46 103 22z m2569 -5 c-1 -5 5 -16 14 -24 15 -11 16 -10
11 10 -4 12 -4 22 -1 22 16 0 45 -25 54 -47 8 -21 6 -30 -11 -48 -60 -64 -193
-91 -253 -52 -23 15 -27 24 -27 66 0 26 3 50 6 54 3 3 21 -2 40 -10 27 -13 38
-14 56 -5 13 7 34 14 48 17 14 2 29 11 35 20 11 16 31 14 28 -3z m268 6 c18
-6 49 -22 67 -35 19 -13 44 -23 54 -23 11 0 18 -5 16 -12 -18 -52 -155 -76
-215 -39 -37 23 -44 61 -17 99 17 25 45 28 95 10z m-2332 -31 c10 -19 9 -32
-9 -79 -34 -92 -83 -113 -110 -49 -14 35 1 102 31 132 27 27 72 25 88 -4z
m2986 -27 c3 -6 -4 -10 -18 -10 -25 0 -62 32 -51 43 7 7 60 -18 69 -33z
m-3646 -4 c16 -20 4 -65 -27 -98 -33 -36 -47 -35 -82 2 -28 30 -28 30 -35 8
-11 -36 -36 -58 -63 -58 -33 0 -62 27 -62 57 0 30 51 83 78 83 32 0 52 -11 52
-28 0 -11 10 -6 31 16 34 35 87 44 108 18z m813 -13 c24 -21 23 -42 -6 -107
-27 -61 -60 -81 -83 -50 -29 39 -6 136 38 160 31 17 29 17 51 -3z m888 -2
c-11 -22 -29 -35 -36 -28 -9 8 20 47 34 47 9 0 10 -5 2 -19z m524 -21 c19 4
38 10 44 14 10 6 107 -38 116 -53 9 -13 -37 -49 -82 -65 -79 -28 -141 12 -142
91 0 33 23 52 28 23 3 -15 9 -16 36 -10z m-716 8 c27 -27 -1 -96 -61 -150 -37
-33 -39 -34 -62 -8 -37 41 -15 112 48 150 37 23 58 25 75 8z m-528 -23 c9 -11
11 -34 7 -73 -5 -45 -12 -62 -33 -80 -33 -29 -66 -25 -78 9 -12 36 2 117 25
140 23 23 62 25 79 4z m-1332 -11 c36 -25 28 -56 -28 -108 -48 -45 -51 -46
-73 -31 -23 15 -24 14 -35 -36 -7 -28 -12 -82 -12 -120 0 -86 -15 -90 -65 -17
-53 80 -47 114 38 203 19 21 27 40 27 65 0 20 5 41 12 48 17 17 109 15 136 -4z
m1497 -19 c34 -33 34 -87 0 -120 -30 -31 -58 -32 -85 -3 -33 35 -21 114 20
135 34 17 37 17 65 -12z m179 9 c11 -4 16 -19 16 -51 0 -38 -5 -50 -34 -79
-19 -19 -39 -34 -46 -34 -17 0 -42 69 -35 97 7 30 48 73 69 73 8 0 21 -3 30
-6z m622 -4 c6 -6 21 -6 42 2 28 11 35 10 59 -8 35 -26 39 -48 18 -80 -19 -29
-72 -64 -97 -64 -9 0 -29 10 -43 23 -20 17 -27 34 -32 80 -6 55 -5 57 19 57
13 0 28 -4 34 -10z m1351 -2 c39 2 60 -20 38 -38 -20 -17 -86 -6 -102 17 -19
25 -16 35 10 27 12 -4 36 -6 54 -6z m-1496 -37 c20 -21 29 -39 29 -62 0 -67
-75 -104 -120 -59 -23 23 -28 97 -7 122 28 35 61 35 98 -1z m-1423 7 c18 -18
15 -49 -8 -85 -23 -39 -52 -43 -74 -11 -23 33 -19 64 10 87 30 24 54 27 72 9z
m-998 -19 c9 -16 6 -32 -19 -85 -16 -35 -33 -64 -37 -64 -4 0 -18 10 -31 22
-34 32 -30 73 11 114 39 39 61 43 76 13z m1141 -10 c14 -27 5 -71 -22 -115
-38 -62 -87 -31 -74 46 13 75 70 116 96 69z m-283 -38 c6 -80 -30 -113 -76
-71 -31 29 -38 65 -17 96 13 21 23 25 53 22 36 -3 37 -4 40 -47z m2636 24 c-4
-10 0 -15 15 -15 27 0 27 -24 -1 -50 -22 -20 -105 -50 -138 -50 -64 0 -114 55
-90 99 12 23 35 26 77 10 44 -17 91 -16 115 3 28 22 29 22 22 3z m-2800 -1
c23 -9 20 -56 -4 -82 -26 -27 -56 -28 -70 -3 -29 56 16 107 74 85z m1534 -39
c2 -81 -70 -121 -76 -43 -3 29 2 43 22 63 38 38 53 33 54 -20z m1482 35 c0 -5
-6 -10 -12 -11 -7 0 -1 -5 15 -11 32 -11 34 -23 8 -38 -27 -14 -44 -13 -67 4
-19 14 -19 15 5 40 25 26 51 34 51 16z m452 -10 c26 -24 14 -42 -20 -34 -21 6
-30 33 -15 47 9 10 12 9 35 -13z m-2844 -30 c12 -22 11 -32 -7 -81 -24 -62
-59 -91 -89 -73 -64 41 -18 191 55 182 17 -2 33 -13 41 -28z m-753 -32 c24
-59 29 -123 10 -141 -23 -24 -32 -22 -71 17 -28 28 -34 41 -34 77 0 78 68 111
95 47z m1535 -8 c0 -30 -30 -57 -50 -45 -18 11 -11 43 12 59 32 22 38 20 38
-14z m-1702 -33 c2 -27 -1 -39 -12 -43 -24 -9 -66 23 -66 50 0 31 9 37 45 34
27 -3 30 -7 33 -41z m1073 22 c13 -26 4 -104 -17 -136 -16 -25 -53 -30 -72
-11 -15 15 -16 82 -1 111 30 59 69 74 90 36z m523 -38 c-1 -43 -38 -101 -64
-101 -24 0 -40 21 -40 53 0 39 15 65 53 87 39 24 52 14 51 -39z m1180 38 c-50
-55 -146 -70 -189 -29 -30 29 -23 46 11 24 21 -15 32 -15 85 -4 33 7 62 17 65
21 3 5 15 9 26 9 21 0 21 0 2 -21z m-1524 -18 c5 -11 10 -43 10 -71 0 -44 -5
-56 -29 -81 -38 -37 -57 -37 -81 4 -30 49 -22 125 17 155 26 19 71 15 83 -7z
m2190 -6 c32 -17 31 -48 -2 -66 -41 -22 -106 33 -83 70 9 16 51 13 85 -4z
m-4288 -30 c-2 -11 -13 -32 -24 -47 -16 -23 -27 -28 -62 -28 -32 0 -48 -6 -66
-25 -13 -14 -32 -25 -43 -25 -30 0 -57 29 -57 61 0 44 23 59 94 59 40 0 69 5
82 15 10 8 33 14 49 12 24 -1 29 -6 27 -22z m2258 10 c7 -8 15 -34 17 -58 4
-35 1 -47 -20 -69 -15 -16 -32 -25 -40 -22 -36 13 -51 119 -21 148 20 20 48
20 64 1z m883 -15 c3 -13 14 -20 30 -20 14 0 37 -6 52 -14 15 -8 34 -12 41 -9
30 11 12 -16 -23 -37 -54 -32 -101 -19 -126 33 -11 21 -16 44 -13 52 8 22 33
18 39 -5z m-3023 -5 c59 -31 45 -81 -38 -138 -26 -17 -42 -36 -42 -48 0 -30
-58 -139 -75 -139 -8 0 -26 15 -40 34 -41 54 -23 94 60 132 40 19 40 19 45 87
6 87 28 104 90 72z m3848 1 c43 -23 78 -64 64 -78 -16 -16 -71 -12 -93 8 -18
17 -26 64 -12 77 9 9 10 9 41 -7z m-1198 -56 c0 -57 -40 -100 -111 -120 -22
-6 -34 -4 -51 9 -21 18 -22 19 -5 62 24 61 40 79 83 94 55 19 84 3 84 -45z
m-1553 5 c43 -80 22 -150 -37 -120 -63 33 -85 93 -50 138 30 38 59 32 87 -18z
m215 28 c26 -23 23 -67 -7 -98 -33 -32 -58 -32 -85 2 -50 64 32 150 92 96z
m203 -25 c30 -36 30 -76 0 -122 -23 -35 -57 -33 -89 5 -41 48 -32 119 17 139
36 14 44 12 72 -22z m1393 20 c26 -26 13 -68 -39 -123 -57 -61 -102 -81 -143
-66 -32 13 -33 22 -1 69 14 20 25 42 25 49 0 24 23 61 44 71 29 15 100 14 114
0z m-2288 -27 c53 -53 52 -133 -3 -139 -62 -7 -113 102 -70 150 23 25 40 23
73 -11z m1794 -24 c19 -14 19 -15 -7 -41 -29 -29 -77 -35 -96 -12 -10 12 -5
23 25 55 31 35 38 39 48 26 6 -8 20 -21 30 -28z m1116 28 c10 -9 46 -20 80
-27 55 -9 61 -12 46 -24 -25 -18 -107 -27 -138 -15 -15 6 -35 22 -44 36 -15
23 -15 28 -3 36 21 13 40 11 59 -6z m-3185 -34 c14 -29 24 -126 12 -137 -8 -9
-50 16 -74 45 -31 36 -29 75 3 100 35 27 41 27 59 -8z m1316 9 c16 -9 19 -22
19 -74 0 -96 -49 -146 -95 -96 -27 29 -17 136 14 161 27 22 35 23 62 9z m2693
-9 c20 -22 14 -41 -14 -41 -31 0 -50 11 -50 30 0 32 39 39 64 11z m-3544 -40
c15 -28 13 -111 -2 -111 -19 0 -33 12 -47 37 -12 24 -15 76 -4 86 13 14 43 7
53 -12z m2558 7 c-5 -16 -41 -22 -74 -14 -42 11 -26 26 27 26 36 0 49 -4 47
-12z m726 -16 c3 -5 0 -42 -7 -83 -12 -67 -15 -74 -36 -74 -51 0 -82 119 -39
149 24 17 73 21 82 8z m-2254 -17 c7 -9 15 -38 18 -66 4 -42 1 -54 -18 -74
-29 -31 -53 -32 -81 -4 -18 18 -21 30 -17 75 3 29 10 60 17 68 17 20 65 21 81
1z m-1327 -38 c14 -22 49 -168 42 -176 -10 -9 -54 12 -87 43 -46 43 -50 80
-12 125 31 37 37 38 57 8z m462 7 c22 -22 16 -78 -8 -82 -41 -8 -74 57 -45 86
16 16 34 15 53 -4z m1060 -14 c20 -39 19 -62 -6 -94 -35 -45 -99 -26 -99 30 0
79 74 124 105 64z m193 18 c36 -36 -22 -127 -72 -112 -45 14 -48 54 -7 95 31
31 59 37 79 17z m832 -21 c0 -11 -15 -34 -34 -53 -26 -26 -43 -34 -69 -34 -37
0 -84 30 -74 47 6 9 76 46 107 56 34 12 70 3 70 -16z m697 6 c29 -12 47 -27
55 -47 16 -40 1 -60 -49 -64 -71 -5 -133 74 -91 116 16 16 35 15 85 -5z
m-4000 -25 c18 -15 16 -77 -5 -118 -10 -21 -31 -42 -53 -52 -22 -10 -41 -29
-49 -47 -7 -17 -18 -36 -26 -42 -8 -6 -14 -27 -14 -45 0 -19 -4 -34 -8 -34 -5
0 -28 14 -51 31 -24 17 -45 28 -47 26 -3 -2 -17 -29 -32 -58 -15 -30 -35 -55
-45 -57 -9 -2 -31 10 -47 26 -24 25 -30 39 -30 76 0 39 4 48 38 76 31 26 43
31 76 26 34 -4 45 1 102 45 47 37 66 60 73 86 15 52 49 86 81 78 14 -4 31 -11
37 -17z m1662 -13 c34 -39 40 -79 17 -110 -12 -16 -17 -17 -44 -6 -29 12 -62
61 -62 93 0 20 29 58 45 58 7 0 27 -16 44 -35z m995 29 c39 -15 -1 -118 -49
-130 -15 -4 -37 -2 -51 5 -34 15 -31 52 7 96 30 34 58 43 93 29z m789 -14 c14
-11 30 -20 35 -20 20 0 21 -31 1 -51 -26 -26 -82 -21 -112 9 -16 17 -17 23 -7
43 24 44 45 49 83 19z m-2939 -11 c41 -33 49 -53 32 -93 -8 -19 -23 -39 -35
-45 -11 -7 -23 -26 -27 -46 -8 -43 -26 -59 -59 -51 -42 11 -52 47 -26 96 11
22 21 57 21 78 0 43 23 82 49 82 10 0 30 -9 45 -21z m3268 0 c53 -29 -30 -89
-124 -89 -55 0 -76 53 -36 90 20 18 31 20 82 15 33 -4 68 -11 78 -16z m-2293
1 c15 -8 51 -75 51 -95 0 -15 -53 -1 -79 21 -35 29 -40 58 -13 73 21 13 20 13
41 1z m-1909 -15 c16 -19 5 -51 -37 -102 -40 -50 -63 -54 -92 -17 -21 27 -26
59 -15 89 15 37 120 59 144 30z m2240 -12 c44 -56 6 -176 -50 -158 -40 13 -63
101 -39 148 24 45 58 49 89 10z m1066 -4 c55 -45 -65 -148 -139 -120 -49 19
-45 57 11 118 21 23 29 25 69 19 25 -3 52 -11 59 -17z m-2563 -20 c50 -27 49
-61 -2 -95 -37 -24 -41 -25 -70 -10 -37 20 -46 9 -30 -42 16 -56 -2 -90 -70
-125 -29 -15 -67 -39 -83 -52 -17 -14 -42 -25 -59 -25 -27 0 -29 -3 -29 -38 0
-41 -25 -74 -68 -87 -14 -4 -29 -22 -39 -46 -22 -56 -57 -63 -96 -19 -26 29
-29 38 -24 79 5 49 30 77 76 87 48 10 103 38 116 59 7 11 16 37 19 57 10 53
34 77 89 87 31 6 60 19 80 38 18 16 44 37 59 46 15 9 34 30 44 46 10 16 27 34
38 40 27 13 24 13 49 0z m1055 -1 c7 -7 12 -22 12 -35 0 -18 -6 -23 -24 -23
-33 0 -50 23 -36 49 12 24 30 27 48 9z m592 -35 c30 -38 24 -117 -11 -144 -32
-24 -62 -24 -84 1 -17 19 -18 27 -7 77 19 92 61 118 102 66z m1115 11 c31 -20
32 -55 4 -100 -24 -40 -55 -50 -103 -34 -59 19 -63 34 -22 73 20 19 36 41 36
50 0 29 48 35 85 11z m-1916 -23 c7 -5 11 -13 7 -19 -8 -13 -42 -4 -57 14 -9
11 -7 14 12 14 13 0 30 -4 38 -9z m132 -42 c11 -11 19 -22 17 -24 -8 -8 -82
14 -97 29 -14 15 -12 16 22 16 24 0 44 -7 58 -21z m867 -11 c21 -45 -16 -108
-64 -108 -56 0 -85 79 -43 121 30 30 89 23 107 -13z m-1488 -32 c-15 -15 -45
18 -36 41 7 17 9 16 27 -6 14 -17 17 -27 9 -35z m1668 38 c40 -28 23 -93 -30
-113 -19 -7 -32 -5 -57 10 -33 20 -37 34 -20 73 20 42 69 57 107 30z m142 -4
c16 -16 18 -24 8 -44 -14 -33 -37 -40 -59 -20 -21 19 -24 37 -9 65 14 24 35
24 60 -1z m-880 -5 c21 -11 30 -23 30 -40 0 -37 18 -39 28 -3 10 41 36 47 57
14 14 -21 15 -31 5 -61 -16 -49 -5 -56 31 -17 58 62 116 24 90 -61 -22 -74
-20 -81 23 -88 56 -9 77 -38 63 -85 -13 -42 -59 -84 -92 -84 -17 0 -25 -7 -29
-27 -4 -16 -16 -53 -27 -85 -21 -58 -49 -79 -76 -56 -10 8 -13 7 -14 -3 0 -23
-73 -124 -92 -127 -9 -2 -29 6 -44 18 l-28 22 -7 -29 c-9 -35 -67 -106 -82
-100 -52 19 -56 19 -56 -8 0 -33 -24 -81 -46 -89 -9 -4 -32 3 -51 14 -19 11
-36 20 -39 20 -2 0 -2 -17 2 -37 13 -85 -54 -98 -97 -19 -19 36 -21 49 -12 68
12 27 132 102 179 112 21 5 46 24 73 57 38 44 40 49 21 49 -12 0 -34 -9 -49
-19 -15 -11 -39 -23 -54 -26 -14 -4 -38 -22 -52 -41 -27 -35 -61 -44 -82 -23
-8 8 -14 5 -22 -10 -16 -28 -47 -27 -67 4 -21 31 -28 31 -42 -1 -19 -40 -54
-29 -66 19 -13 51 0 70 55 79 24 3 78 18 119 32 41 14 81 26 90 26 9 0 25 7
36 15 17 13 15 14 -31 14 -27 0 -61 -6 -74 -13 -35 -19 -51 -10 -51 30 0 23 7
38 22 48 34 24 58 20 58 -9 0 -26 14 -33 26 -14 4 7 26 8 64 4 54 -6 62 -4
136 35 112 59 161 102 190 167 13 31 24 62 24 71 0 32 -62 111 -108 138 -26
15 -55 35 -65 45 -10 11 -32 19 -50 19 -18 0 -42 7 -53 15 -18 14 -17 14 16
15 19 0 44 7 54 15 30 23 55 18 74 -15 19 -34 37 -40 29 -10 -3 11 1 27 10 35
18 18 17 18 53 0z m1718 -5 c86 -53 -14 -143 -107 -96 -51 27 -54 39 -18 73
28 28 49 38 82 42 6 0 25 -8 43 -19z m581 -73 c14 -42 7 -63 -25 -71 -59 -15
-132 52 -118 109 10 41 32 46 85 19 35 -17 50 -32 58 -57z m-330 16 c28 -26
51 -52 51 -59 0 -7 6 -14 13 -17 27 -10 -42 -74 -82 -76 -20 -1 -109 67 -116
89 -6 18 14 68 37 98 19 22 45 13 97 -35z m560 34 c19 -24 42 -100 32 -110
-32 -32 -94 51 -73 98 13 28 24 31 41 12z m-1451 -24 c18 -25 15 -48 -14 -82
-17 -20 -35 -31 -52 -31 -27 0 -92 33 -92 47 0 4 19 27 43 51 36 37 46 42 72
38 17 -4 36 -14 43 -23z m-2069 -57 c9 -20 11 -38 4 -60 -8 -29 -11 -31 -60
-31 -28 -1 -58 -7 -67 -14 -16 -14 -46 -9 -46 8 0 16 32 42 46 37 8 -3 15 7
20 27 11 52 26 68 59 65 22 -2 34 -11 44 -32z m205 18 c10 -26 7 -34 -13 -34
-23 0 -35 15 -27 35 7 20 32 19 40 -1z m2079 -16 c24 -17 28 -26 23 -50 -10
-51 -43 -88 -79 -88 -35 0 -94 32 -103 55 -6 14 24 62 62 100 20 20 54 14 97
-17z m-3355 -27 c4 -52 -28 -105 -73 -121 -16 -6 -43 -23 -60 -39 -16 -16 -43
-35 -60 -42 -30 -14 -65 -63 -53 -74 4 -4 23 -1 42 6 25 9 44 10 63 3 25 -8
28 -15 29 -54 1 -53 -38 -140 -62 -140 -9 0 -32 14 -51 30 -32 28 -36 29 -56
15 -32 -22 -52 -19 -87 16 l-31 32 -35 -34 c-41 -39 -56 -31 -58 31 -1 35 4
46 32 71 18 16 40 29 50 29 34 0 81 39 100 83 13 29 35 55 65 75 24 17 47 38
51 47 3 9 25 25 49 35 24 11 61 33 82 50 21 17 43 29 49 27 6 -2 12 -23 14
-46z m2496 3 c22 -21 20 -45 -7 -85 -40 -59 -127 -45 -127 22 0 62 92 106 134
63z m-1654 -14 c9 -17 6 -24 -17 -46 -35 -32 -67 -29 -71 9 -2 16 2 35 9 43
17 21 66 18 79 -6z m2733 9 c70 -36 83 -79 40 -135 -38 -51 -76 -68 -118 -54
-46 15 -85 48 -85 71 0 21 44 96 69 117 18 15 65 16 94 1z m-865 -22 c17 -13
15 -68 -4 -95 -29 -41 -124 -19 -124 29 0 64 78 104 128 66z m225 -7 c46 -37
44 -78 -7 -133 -25 -27 -26 -27 -63 -12 -55 23 -73 43 -73 82 0 71 85 109 143
63z m897 -70 c41 -52 51 -88 35 -127 -14 -34 -50 -63 -78 -63 -27 0 -75 28
-88 51 -9 17 -4 33 27 92 53 102 58 104 104 47z m610 22 c0 -4 -9 -13 -20 -20
-16 -10 -20 -10 -20 1 0 8 3 17 7 20 9 9 33 9 33 -1z m-1269 -39 c36 -21 40
-33 28 -75 -21 -77 -75 -103 -141 -66 -58 31 -58 52 -5 111 48 51 71 57 118
30z m-2429 -10 c26 -24 23 -75 -7 -108 -25 -26 -35 -27 -77 -10 -14 6 -17 0
-20 -36 -3 -36 -8 -47 -37 -66 -31 -21 -36 -22 -57 -8 -32 21 -33 20 -27 -23
4 -29 -2 -51 -26 -99 -17 -33 -37 -66 -45 -72 -33 -28 -106 24 -106 75 0 29
57 98 178 218 44 43 54 48 80 43 26 -5 31 -2 42 24 11 26 63 79 77 79 4 0 15
-7 25 -17z m3489 -15 c12 -18 28 -38 36 -44 22 -18 5 -44 -29 -44 -51 0 -111
84 -81 113 17 18 53 5 74 -25z m233 -38 c30 -55 32 -75 11 -84 -37 -14 -75 41
-75 110 0 47 31 35 64 -26z m-3263 40 c25 -14 24 -47 -2 -55 -15 -5 -28 -1
-42 13 -36 36 -4 67 44 42z m-137 -6 c23 -9 21 -67 -3 -88 -25 -22 -58 -13
-73 20 -10 20 -8 28 12 49 24 26 37 29 64 19z m-914 -25 c14 -26 4 -97 -18
-121 -8 -10 -28 -18 -43 -18 -20 0 -34 -8 -45 -25 -26 -40 -51 -49 -80 -31
-49 33 -37 102 24 129 15 6 46 28 69 49 48 43 77 48 93 17z m2424 -15 c22 -22
20 -76 -4 -102 -29 -31 -65 -38 -95 -18 -36 24 -32 61 9 102 37 37 66 43 90
18z m816 -4 c47 -47 49 -130 4 -176 -30 -29 -58 -30 -101 -4 -55 33 -59 53
-22 118 18 31 37 63 42 70 14 19 55 14 77 -8z m671 -41 c3 -30 12 -69 20 -87
17 -40 4 -66 -33 -70 -58 -7 -137 52 -106 77 7 6 27 22 45 36 22 18 33 37 38
66 10 56 29 44 36 -22z m-3116 16 c31 -30 32 -50 4 -73 -48 -38 -69 -68 -90
-126 -27 -75 -42 -99 -72 -115 -13 -7 -31 -26 -41 -42 -21 -35 -61 -39 -100
-8 l-26 20 0 -40 c0 -83 -30 -116 -92 -102 -36 8 -36 8 -43 -28 -12 -65 -41
-78 -89 -40 -45 36 -28 129 25 129 28 0 49 -11 49 -26 0 -8 5 -14 10 -14 6 0
10 15 10 33 0 46 32 93 81 118 24 12 49 28 57 35 8 8 27 21 42 29 16 8 37 31
46 50 9 20 38 56 65 82 26 25 51 59 54 74 7 30 47 69 72 69 8 0 25 -11 38 -25z
m1839 4 c33 -15 39 -35 25 -78 -26 -80 -52 -96 -108 -67 -48 25 -55 40 -35 81
17 37 58 75 80 75 7 0 24 -5 38 -11z m-1454 -17 c0 -5 -9 -17 -19 -26 -21 -19
-37 -7 -27 19 6 16 46 21 46 7z m110 -26 c0 -18 -16 -29 -30 -21 -13 8 -1 35
16 35 8 0 14 -6 14 -14z m1559 -52 c25 -32 27 -74 5 -137 -12 -35 -21 -47 -35
-47 -28 0 -69 23 -98 54 l-25 26 34 70 c43 88 70 96 119 34z m606 24 c14 -12
25 -27 25 -34 0 -6 7 -25 15 -40 25 -48 19 -78 -20 -113 -20 -17 -40 -31 -46
-31 -21 0 -75 28 -94 49 -16 18 -17 25 -7 39 7 9 24 42 38 72 42 89 49 93 89
58z m-2377 -28 c28 -26 28 -32 -4 -69 -39 -47 -67 -37 -80 26 -11 55 42 82 84
43z m-148 -56 c0 -14 -5 -34 -10 -45 -20 -36 -70 -17 -70 26 0 29 19 45 52 45
23 0 28 -4 28 -26z m1368 -7 c24 -51 -17 -127 -69 -127 -71 0 -91 33 -54 95
14 24 33 49 43 55 30 17 66 7 80 -23z m-1103 6 c-4 -10 -8 -22 -9 -28 -5 -24
-28 -55 -40 -55 -33 0 -25 68 11 89 29 17 46 14 38 -6z m119 1 c21 -21 20 -28
-7 -60 -15 -17 -30 -25 -40 -21 -17 6 -33 69 -22 86 9 16 51 13 69 -5z m1728
-15 c11 -14 22 -44 25 -66 4 -32 1 -45 -20 -68 -23 -27 -27 -28 -63 -20 -39
10 -39 10 -38 60 1 70 27 127 55 123 12 -2 31 -15 41 -29z m-2929 -18 c14 -6
28 -19 32 -30 13 -41 -56 -131 -101 -131 -38 0 -67 36 -60 73 7 37 50 84 80
90 11 2 22 5 23 6 1 0 13 -3 26 -8z m2367 -13 c32 -35 35 -62 8 -110 -30 -55
-65 -62 -98 -21 -17 22 -21 37 -17 71 8 76 63 107 107 60z m1623 -1 c18 -8 38
-22 46 -31 13 -15 13 -19 0 -27 -31 -20 -99 16 -99 53 0 22 10 22 53 5z m-413
-8 c0 -5 12 -35 27 -65 21 -44 24 -58 15 -78 -14 -32 -43 -37 -91 -15 -58 26
-60 41 -12 87 23 22 41 48 41 60 0 12 5 22 10 22 6 0 10 -5 10 -11z m-4429
-40 c13 -13 19 -29 17 -44 -4 -21 -1 -19 28 12 38 40 63 40 82 -1 12 -25 12
-35 -7 -90 -26 -77 -26 -84 0 -112 15 -16 20 -30 15 -47 -7 -30 -133 -187
-150 -187 -6 0 -28 11 -48 25 -20 14 -39 25 -42 25 -3 0 -24 -27 -47 -61 -39
-58 -42 -60 -60 -43 -10 9 -21 32 -25 51 -8 42 33 110 71 118 14 3 35 7 48 10
12 2 42 23 66 45 24 23 62 50 83 61 22 11 38 22 36 24 -1 2 -19 16 -39 32 -32
25 -42 28 -98 25 -60 -4 -63 -5 -88 -43 -20 -31 -34 -41 -64 -45 -31 -5 -40
-12 -49 -37 -5 -17 -8 -45 -4 -63 5 -26 -3 -49 -46 -125 -50 -91 -74 -160
-106 -303 -16 -74 -43 -121 -74 -131 -27 -8 -39 1 -56 41 -20 47 -18 66 12
110 24 34 26 45 20 99 -8 82 6 128 47 153 23 13 37 31 45 58 6 22 27 58 47 81
29 34 35 49 35 87 0 31 6 51 18 61 44 38 59 53 83 82 14 17 45 41 67 52 23 12
58 39 78 61 42 45 73 51 105 19z m1589 -11 c32 -51 21 -77 -54 -130 -13 -10
-27 -32 -31 -50 -4 -18 -20 -50 -36 -70 -16 -20 -29 -46 -29 -58 0 -51 -58
-96 -108 -86 -24 5 -29 1 -47 -37 -16 -34 -29 -45 -64 -58 -25 -9 -52 -26 -62
-38 -10 -12 -41 -38 -70 -58 -49 -34 -55 -35 -78 -22 -96 54 -40 169 83 169
l51 0 28 54 c21 39 37 58 59 65 27 10 62 35 125 92 12 11 24 33 28 49 3 16 24
48 45 71 21 23 41 55 44 70 14 70 82 91 116 37z m-912 -21 c21 -16 13 -63 -18
-102 -16 -20 -32 -45 -35 -56 -9 -28 -39 -23 -74 12 -43 42 -42 84 2 126 42
41 88 48 125 20z m2730 7 c65 -45 70 -193 7 -202 -26 -4 -105 63 -105 89 0 19
33 92 52 117 13 16 19 15 46 -4z m-2999 -7 c65 -3 81 -21 81 -92 0 -61 -20
-95 -57 -95 -38 0 -63 27 -63 67 0 43 -11 42 -50 -7 -38 -47 -61 -50 -89 -11
-33 46 -24 95 23 134 16 13 31 16 61 12 22 -4 64 -7 94 -8z m2455 -9 c47 -73
17 -158 -56 -158 -31 0 -78 45 -78 75 0 31 69 105 98 105 12 0 28 -10 36 -22z
m1113 10 c15 -20 43 -101 43 -125 0 -64 -139 -70 -190 -8 -13 15 -11 19 15 38
17 12 48 41 70 64 44 47 48 49 62 31z m-2233 -24 c18 -47 -13 -144 -47 -144
-25 0 -57 27 -57 49 0 9 9 32 21 51 34 57 70 77 83 44z m132 -15 c20 -22 14
-42 -21 -65 -24 -16 -27 -16 -45 1 -26 23 -27 82 -2 87 26 6 49 -2 68 -23z
m3199 21 c3 -5 2 -10 -4 -10 -5 0 -13 5 -16 10 -3 6 -2 10 4 10 5 0 13 -4 16
-10z m-3095 -35 c0 -9 -7 -32 -15 -51 -10 -25 -20 -34 -32 -32 -24 5 -22 67 3
85 24 17 44 16 44 -2z m1095 -65 c21 -40 19 -82 -5 -108 -26 -28 -57 -28 -87
0 -30 28 -29 63 3 105 33 43 68 44 89 3z m584 -5 c42 -38 74 -109 69 -152 -5
-42 -47 -59 -90 -37 -50 25 -98 75 -98 102 0 13 10 46 21 73 26 60 44 62 98
14z m-935 -17 c9 -23 11 -50 6 -87 -8 -61 -29 -84 -69 -75 -29 7 -103 56 -109
72 -4 14 56 81 93 104 44 26 64 23 79 -14z m1947 11 c24 -12 16 -29 -15 -29
-22 0 -46 17 -46 32 0 11 38 10 61 -3z m-440 -43 c29 -63 23 -88 -27 -105 -37
-13 -44 -12 -79 5 -22 10 -40 24 -42 29 -1 6 12 19 30 30 17 11 41 35 52 52
11 18 26 32 32 33 7 0 22 -20 34 -44z m-2323 -18 c2 -10 -10 -30 -28 -46 -27
-25 -31 -35 -29 -74 4 -63 -17 -108 -48 -108 -39 0 -63 18 -63 47 0 25 64 144
99 186 19 22 65 19 69 -5z m1328 14 c20 -13 47 -76 48 -113 1 -70 -47 -90
-103 -43 -38 32 -40 62 -6 121 25 42 39 50 61 35z m-2339 -24 c31 -29 29 -57
-11 -114 -46 -68 -50 -106 -15 -163 42 -70 45 -102 14 -140 -46 -54 -110 -37
-121 31 -5 26 0 49 15 81 11 24 21 50 21 58 0 8 -23 39 -50 69 l-48 55 -10
-26 c-12 -31 -67 -79 -90 -79 -28 1 -54 27 -61 61 l-7 33 -38 -52 c-21 -29
-44 -52 -52 -52 -8 0 -28 19 -45 43 -24 32 -29 49 -25 72 15 71 87 102 154 65
l40 -22 31 23 c28 20 35 22 63 11 28 -10 36 -8 96 28 75 45 106 49 139 18z
m805 -11 c15 -24 21 -80 10 -96 -6 -9 -19 -31 -28 -48 -21 -41 -45 -42 -78 -2
-57 67 -18 180 57 165 17 -3 35 -12 39 -19z m-1410 -34 c25 -23 23 -36 -19
-108 -29 -49 -43 -65 -60 -65 -29 0 -63 34 -63 63 0 32 35 84 72 107 40 24 46
25 70 3z m1857 3 c19 -22 19 -113 0 -131 -32 -32 -79 20 -79 89 0 49 51 76 79
42z m-129 -36 c31 -31 26 -74 -14 -118 -42 -45 -59 -39 -94 29 -27 55 -22 73
26 93 49 20 58 20 82 -4z m568 -34 c18 -36 7 -84 -23 -98 -19 -8 -30 -7 -56 8
-17 11 -36 26 -42 35 -16 25 0 65 35 88 28 17 36 18 53 7 11 -7 26 -25 33 -40z
m324 -7 c15 -50 3 -73 -40 -77 -22 -2 -39 5 -63 26 -28 25 -30 31 -20 51 7 12
26 31 43 41 41 25 63 13 80 -41z m577 -14 c42 -74 49 -110 26 -135 -25 -27
-68 -25 -104 6 -35 30 -40 63 -16 121 34 80 53 82 94 8z m486 -1 c38 -93 -4
-130 -95 -84 -35 18 -55 50 -32 50 4 0 25 16 47 35 22 19 45 35 52 35 7 0 20
-16 28 -36z m453 0 c30 -15 13 -28 -36 -26 -33 1 -72 25 -72 44 0 11 77 -2
108 -18z m-1988 -51 c16 -21 20 -38 18 -77 -3 -44 -6 -51 -26 -54 -30 -5 -82
48 -82 83 0 25 39 75 59 75 5 0 19 -12 31 -27z m325 1 c57 -62 6 -142 -65
-104 -48 26 -46 94 3 118 32 15 36 15 62 -14z m344 -38 c23 -53 24 -60 10 -85
-20 -36 -58 -39 -98 -6 -38 33 -39 55 -3 112 37 60 59 55 91 -21z m-1492 15
c13 -19 23 -48 23 -66 0 -50 -21 -69 -81 -75 -52 -5 -54 -6 -57 -37 -4 -39
-31 -57 -72 -48 -32 7 -70 48 -70 75 0 28 39 69 73 78 23 6 37 18 49 44 36 75
96 88 135 29z m2138 -106 c23 -43 27 -59 19 -73 -21 -33 -126 -23 -140 12 -3
8 4 25 16 38 12 13 29 40 37 61 18 45 26 41 68 -38z m449 30 c-11 -28 -53 -38
-81 -19 -29 19 -23 28 32 46 44 15 61 5 49 -27z m-2395 24 c31 -11 46 -39 39
-75 -2 -10 -22 -31 -45 -47 -49 -33 -71 -27 -103 26 -27 43 -25 62 6 86 30 24
56 26 103 10z m507 -75 c17 -74 17 -77 -1 -90 -27 -20 -43 -17 -70 11 -46 45
-24 155 30 155 20 0 25 -9 41 -76z m989 24 c26 -89 17 -138 -26 -138 -19 0
-79 46 -79 61 0 5 12 36 27 69 34 78 56 80 78 8z m-3037 14 c6 -9 12 -24 12
-34 0 -30 -38 -96 -65 -114 -23 -15 -27 -15 -62 3 -31 15 -39 24 -41 51 -4 38
23 78 71 104 34 19 64 16 85 -10z m458 -3 c27 -22 16 -67 -27 -114 -50 -54
-77 -57 -113 -14 -41 48 -32 93 27 130 34 21 86 20 113 -2z m1444 2 c17 -34
12 -76 -14 -100 -30 -28 -55 -22 -91 20 -34 41 -33 74 3 87 46 17 90 14 102
-7z m-1731 -6 c47 -24 54 -79 22 -152 -29 -62 -66 -78 -101 -43 -16 16 -20 33
-20 90 0 62 3 74 25 95 28 29 36 30 74 10z m1548 -7 c6 -7 16 -34 22 -59 10
-37 10 -52 1 -70 -31 -59 -66 -74 -105 -45 -45 33 5 186 61 186 6 0 16 -6 21
-12z m702 -25 c44 -40 49 -76 17 -107 -37 -38 -71 -34 -118 14 -40 40 -40 40
-23 67 38 61 78 69 124 26z m-2638 1 c48 -24 39 -47 -81 -185 -28 -32 -39 -29
-64 18 -34 68 -9 129 68 164 50 22 41 22 77 3z m2898 -18 c24 -39 27 -98 6
-116 -24 -20 -80 -4 -109 31 -33 39 -33 56 1 91 38 40 75 38 102 -6z m-3139 5
c17 -33 11 -71 -22 -133 l-31 -59 30 -31 30 -30 48 21 c71 31 89 28 104 -16 8
-27 9 -53 3 -86 -9 -43 -7 -53 21 -106 48 -92 25 -141 -68 -141 -53 0 -53 0
-86 -51 -32 -51 -33 -51 -75 -46 -24 2 -42 2 -42 -2 1 -3 -4 -23 -11 -44 -20
-58 -76 -77 -105 -35 -38 54 7 115 75 104 l36 -6 -5 50 c-4 46 -2 52 28 80 24
23 42 30 71 30 32 0 42 6 65 35 l27 36 -23 24 c-12 13 -32 45 -45 70 l-22 47
-27 -46 c-51 -87 -101 -94 -132 -19 -20 48 -10 89 33 128 l35 32 -26 38 c-29
43 -33 83 -11 125 19 36 41 49 82 50 22 0 36 -6 43 -19z m4550 -11 c0 -5 -11
-10 -24 -10 -14 0 -28 5 -31 10 -4 6 7 10 24 10 17 0 31 -4 31 -10z m-3032
-22 c17 -17 15 -53 -4 -69 -9 -7 -30 -44 -46 -81 -32 -72 -46 -80 -86 -52 -22
15 -52 63 -52 84 0 11 50 36 93 45 18 3 31 15 38 32 19 50 36 62 57 41z m1216
-61 c25 -59 15 -81 -38 -85 -53 -5 -69 12 -63 65 6 53 23 75 56 71 20 -2 30
-13 45 -51z m969 -2 c32 -65 25 -95 -20 -95 -29 0 -73 35 -73 57 0 20 43 93
55 93 6 0 23 -25 38 -55z m485 16 c6 -36 -13 -47 -44 -26 l-27 18 24 18 c29
23 43 20 47 -10z m-2268 -1 c20 -20 27 -71 14 -104 -3 -8 -27 -22 -52 -31 -33
-10 -52 -24 -64 -45 -19 -33 -52 -39 -91 -18 -73 38 -58 128 21 128 29 0 43 8
76 45 45 50 66 55 96 25z m1406 -15 c71 -109 24 -194 -59 -104 -27 29 -27 30
-11 67 9 20 18 43 21 50 8 20 31 14 49 -13z m-2032 -77 c22 -30 20 -91 -2
-119 -20 -24 -60 -29 -117 -15 -29 7 -32 5 -53 -38 -15 -32 -28 -46 -41 -46
-39 0 -101 88 -101 142 1 45 55 88 112 88 20 0 40 -4 43 -10 9 -15 41 -12 56
6 32 38 73 35 103 -8z m-803 12 c10 -6 19 -20 19 -30 0 -19 -82 -131 -101
-138 -4 -2 -23 1 -42 6 l-35 10 -6 -42 c-4 -22 -9 -51 -12 -62 -4 -17 3 -27
32 -45 l37 -23 41 46 c23 26 51 49 63 53 14 4 35 29 54 66 18 33 45 71 61 85
53 44 138 23 138 -34 0 -39 -67 -123 -120 -150 -37 -18 -49 -32 -71 -81 -14
-32 -37 -65 -50 -74 -25 -18 -63 -14 -91 10 -18 16 -38 10 -38 -12 0 -8 -27
-42 -60 -77 -33 -34 -60 -67 -60 -74 0 -18 -94 -114 -112 -114 -9 0 -29 11
-44 24 -55 47 -28 128 55 163 19 8 45 11 62 8 34 -8 34 -9 13 41 -18 44 -13
84 16 121 l21 26 -28 29 c-23 25 -28 38 -27 80 1 60 22 82 69 74 28 -6 31 -3
49 39 10 25 29 54 43 65 28 22 92 27 124 10z m1976 -12 c31 -26 2 -80 -53 -98
-32 -11 -39 -10 -65 9 -37 28 -42 27 -34 -9 5 -21 -1 -45 -18 -84 -15 -32 -23
-64 -20 -80 7 -36 -19 -72 -64 -86 -21 -7 -51 -23 -68 -35 -16 -12 -40 -25
-52 -29 -18 -6 -23 -3 -29 18 -13 52 48 162 113 206 22 15 50 48 67 79 16 30
36 55 45 58 9 2 27 20 39 40 23 35 24 35 75 29 28 -4 57 -12 64 -18z m-318 -2
c7 -8 15 -30 18 -50 5 -31 2 -37 -28 -55 -41 -25 -57 -26 -81 -4 -40 36 -4
123 52 123 15 0 33 -6 39 -14z m895 -27 c14 -17 26 -37 26 -44 0 -18 -28 -45
-46 -45 -20 0 -74 54 -74 73 0 56 53 65 94 16z m522 -46 c16 -60 -24 -98 -70
-68 -35 23 -36 34 -9 95 l24 55 25 -30 c13 -16 27 -40 30 -52z m480 38 c28
-43 29 -78 1 -95 -15 -9 -21 -7 -33 8 -16 22 -20 126 -4 126 5 0 21 -18 36
-39z m-1395 0 c56 -56 28 -141 -41 -126 -60 13 -83 90 -42 138 22 25 50 21 83
-12z m-1752 -17 c25 -21 31 -33 31 -65 0 -95 -71 -149 -127 -97 -51 48 -11
186 54 188 6 0 25 -12 42 -26z m1963 9 c45 -52 66 -137 42 -165 -47 -51 -135
17 -134 104 1 63 58 100 92 61z m-1222 -13 c28 -28 25 -51 -11 -93 -37 -44
-69 -48 -104 -12 -29 28 -30 36 -10 75 27 52 88 67 125 30z m2240 -9 c21 -40
-37 -60 -77 -28 -19 14 -16 27 10 37 35 14 56 11 67 -9z m-650 -38 c34 -53 37
-78 14 -104 -15 -17 -19 -17 -45 -4 -16 9 -33 24 -39 36 -17 30 6 119 31 119
5 0 23 -21 39 -47z m-1222 14 c6 -7 17 -34 24 -61 13 -48 13 -48 -17 -72 -38
-31 -60 -30 -81 1 -21 32 -11 89 21 121 27 27 38 29 53 11z m1730 -69 c7 -7
12 -25 12 -40 0 -36 -41 -49 -70 -23 -26 23 -25 40 2 59 27 19 40 20 56 4z
m-1199 -32 c8 -6 20 -26 28 -45 13 -30 12 -35 -3 -52 -25 -28 -79 -25 -109 6
-27 26 -31 46 -14 76 19 36 63 43 98 15z m912 -58 c20 -50 -11 -82 -57 -58
-34 19 -38 44 -17 96 l18 45 22 -28 c13 -15 28 -40 34 -55z m-1955 26 c14 -20
15 -30 6 -50 -18 -38 -53 -50 -92 -30 l-32 16 -45 -50 c-25 -28 -52 -50 -60
-50 -8 0 -30 15 -49 34 -43 43 -44 77 -5 116 38 39 71 46 114 25 35 -16 37
-16 73 9 42 28 62 24 90 -20z m1609 -20 c48 -63 32 -157 -23 -140 -32 11 -82
62 -82 85 0 20 54 91 70 91 4 0 20 -16 35 -36z m488 -1 c2 -10 7 -25 11 -33 8
-21 -8 -42 -27 -34 -22 8 -24 84 -3 84 7 0 16 -8 19 -17z m-1719 -14 c39 -31
32 -66 -22 -103 -35 -25 -46 -28 -70 -20 -30 11 -56 55 -48 82 8 23 66 62 92
62 12 0 33 -10 48 -21z m900 -10 c46 -54 30 -119 -29 -119 -28 0 -37 6 -50 30
-29 57 -11 120 35 120 10 0 30 -14 44 -31z m-1846 -5 c26 -18 28 -50 6 -82
-28 -41 -104 -18 -104 32 0 29 11 43 40 55 33 13 32 13 58 -5z m3007 -9 c0
-25 -42 -32 -70 -11 -20 14 -20 15 5 25 37 15 65 9 65 -14z m-2811 -4 c11 -12
20 -43 23 -78 5 -53 3 -62 -22 -91 -62 -74 -113 -16 -106 124 1 28 37 64 65
64 13 0 31 -9 40 -19z m1306 -17 c16 -49 5 -95 -31 -130 -28 -27 -30 -33 -24
-76 6 -40 4 -48 -14 -57 -74 -40 -153 23 -129 103 7 21 25 46 40 58 16 11 40
42 53 68 40 78 86 93 105 34z m-770 -47 c0 -24 -13 -42 -62 -88 -65 -60 -96
-71 -139 -49 -48 26 7 120 71 120 22 0 41 10 66 36 29 28 39 33 50 23 8 -6 14
-25 14 -42z m-898 0 c46 -59 10 -157 -58 -157 -28 0 -53 29 -55 65 -7 103 61
158 113 92z m2598 -66 c0 -59 -62 -80 -106 -35 -29 29 -27 57 8 107 l21 29 38
-38 c25 -24 39 -47 39 -63z m-399 62 c8 -10 26 -45 39 -77 22 -57 23 -59 5
-72 -29 -21 -54 -17 -86 15 -35 35 -37 72 -9 119 23 37 31 39 51 15z m-294
-25 c49 -54 53 -85 17 -122 -36 -35 -77 -34 -115 3 -37 37 -37 70 0 110 35 37
69 40 98 9z m1099 -14 c3 -12 3 -28 -1 -33 -11 -19 -53 -12 -70 12 -15 20 -14
23 5 39 26 21 59 12 66 -18z m-198 -39 c38 -32 45 -59 21 -81 -16 -14 -23 -15
-49 -4 -35 14 -46 44 -31 83 13 33 22 34 59 2z m-1480 -40 c5 -36 -41 -85 -79
-85 -62 0 -62 65 -1 107 42 28 75 19 80 -22z m-714 21 c36 -15 49 -41 48 -89
-1 -40 -26 -73 -71 -96 -21 -11 -48 -36 -59 -56 -23 -37 -46 -44 -85 -24 -80
41 -74 169 8 169 18 0 31 11 51 43 26 42 51 67 66 67 5 0 24 -6 42 -14z m-781
-9 c18 -8 38 -25 45 -39 12 -22 12 -30 -1 -54 -23 -43 -67 -81 -111 -96 -32
-11 -45 -22 -65 -63 -21 -40 -32 -51 -54 -53 -34 -4 -64 20 -84 66 -26 62 23
162 80 162 13 0 34 12 48 26 28 31 78 64 97 64 7 0 27 -6 45 -13z m1161 -3
c21 -20 20 -32 -4 -72 -33 -54 -93 -63 -111 -15 -10 28 10 75 38 92 26 15 59
13 77 -5z m766 -40 c30 -34 31 -40 26 -88 -5 -36 -2 -62 9 -88 22 -54 19 -83
-11 -107 -37 -29 -51 -27 -96 19 -36 36 -39 43 -33 72 4 18 7 66 6 107 -2 64
1 77 20 97 30 32 41 30 79 -12z m649 14 c28 -71 34 -107 21 -123 -18 -21 -37
-19 -65 10 -29 28 -32 65 -8 106 21 35 40 37 52 7z m-309 -35 c30 -67 14 -133
-30 -133 -25 0 -80 48 -80 69 0 25 57 111 74 111 8 0 25 -21 36 -47z m-1830
19 c18 -15 21 -24 16 -49 -11 -46 -43 -76 -75 -68 -38 10 -51 24 -51 57 0 33
39 78 68 78 11 0 30 -8 42 -18z m1190 -40 c0 -46 -15 -65 -42 -51 -22 12 -23
46 -1 71 27 30 43 22 43 -20z m-1370 -12 c27 -27 25 -64 -5 -88 -30 -23 -69
-18 -90 11 -21 31 -18 63 7 81 31 22 64 20 88 -4z m1070 -6 c14 -35 12 -104
-3 -133 -6 -13 -24 -33 -39 -44 -24 -18 -30 -18 -58 -7 -33 14 -60 55 -60 91
0 14 19 41 50 71 58 56 95 63 110 22z m1506 -20 c37 -39 43 -68 17 -96 -24
-27 -51 -22 -89 16 -40 40 -42 54 -13 90 27 35 45 33 85 -10z m382 -1 c-4 -21
-36 -29 -51 -14 -9 9 -8 14 3 21 25 16 52 12 48 -7z m-738 -45 c35 -48 37 -71
10 -98 -26 -26 -80 -26 -114 1 -33 26 -33 35 4 92 38 60 60 61 100 5z m-1410
17 c34 -17 49 -58 30 -80 -26 -31 -120 -5 -120 33 0 17 38 62 52 62 5 0 22 -7
38 -15z m1054 -27 c19 -31 28 -76 21 -99 -16 -48 -101 -43 -123 7 -14 29 -7
50 26 87 31 33 57 35 76 5z m-2664 -43 c56 -29 65 -79 25 -137 -14 -20 -34
-39 -45 -43 -42 -13 -110 53 -110 108 0 35 46 87 76 87 14 0 38 -7 54 -15z
m2087 -17 c31 -34 43 -63 43 -100 0 -39 -7 -51 -38 -67 -44 -23 -132 20 -132
65 0 56 47 124 85 124 12 0 31 -10 42 -22z m233 7 c8 -9 14 -44 14 -79 1 -50
-3 -69 -18 -85 -27 -29 -62 -26 -97 8 -23 24 -29 38 -29 74 0 38 5 49 31 71
34 29 80 34 99 11z m-1616 -5 c35 -13 60 -54 52 -85 -4 -14 -21 -42 -40 -62
-29 -32 -36 -35 -69 -29 -21 4 -44 17 -56 33 -19 23 -21 24 -27 7 -3 -11 -12
-35 -19 -54 -7 -19 -16 -52 -19 -73 -3 -22 -10 -45 -17 -53 -33 -40 -106 13
-95 71 3 16 10 57 15 89 13 72 48 116 95 116 17 1 51 12 76 25 50 27 67 29
104 15z m751 4 c8 -4 22 -19 30 -35 18 -33 9 -63 -28 -97 -14 -13 -28 -40 -32
-60 -4 -21 -11 -43 -17 -49 -17 -21 -57 -15 -83 13 -30 32 -32 74 -5 99 10 9
25 34 31 54 24 71 55 94 104 75z m-452 -32 c43 -38 -3 -142 -63 -142 -30 0
-90 57 -90 86 0 66 99 103 153 56z m2203 -7 c20 -49 18 -82 -7 -95 -28 -16
-69 11 -69 46 0 34 27 84 46 84 8 0 22 -16 30 -35z m381 9 c-3 -3 -12 -4 -19
-1 -8 3 -5 6 6 6 11 1 17 -2 13 -5z m-753 -26 c8 -13 18 -46 21 -73 7 -48 6
-52 -19 -63 -37 -17 -46 -15 -73 10 -34 32 -29 81 15 131 20 23 39 22 56 -5z
m-2563 -37 c23 -24 29 -38 29 -73 0 -48 -27 -88 -58 -88 -43 0 -92 63 -92 117
0 73 67 97 121 44z m1468 -12 c17 -16 18 -23 9 -49 -15 -44 -43 -61 -80 -48
-38 14 -55 49 -40 83 21 45 71 51 111 14z m1696 -4 c14 -13 25 -30 25 -38 0
-19 -21 -37 -45 -37 -40 0 -57 39 -35 81 14 25 26 24 55 -6z m-1538 -27 c31
-29 29 -61 -8 -102 -28 -32 -30 -39 -24 -81 4 -25 9 -45 11 -45 2 0 18 9 36
20 42 25 80 25 102 1 15 -17 17 -31 11 -104 -7 -80 -9 -87 -41 -118 -23 -22
-34 -42 -34 -62 0 -44 -17 -67 -66 -87 -38 -17 -44 -23 -44 -49 0 -16 -10 -42
-24 -58 -13 -15 -32 -49 -43 -74 -12 -26 -26 -50 -32 -54 -7 -4 -16 -18 -21
-31 -6 -14 -17 -27 -26 -31 -29 -11 -38 14 -35 98 2 66 7 87 27 116 13 20 24
42 24 51 0 8 17 30 38 49 34 31 37 38 37 88 0 43 5 58 24 79 14 14 30 26 38
26 17 0 16 4 -3 42 -15 28 -19 30 -55 24 -34 -5 -43 -3 -64 18 -49 49 -24 129
45 143 28 5 29 7 15 26 -37 53 -1 137 58 137 18 0 40 -9 54 -22z m-692 -8 c27
-30 25 -88 -3 -111 -24 -19 -45 -16 -74 9 -27 22 -22 60 11 93 35 34 42 35 66
9z m1499 -20 c36 -44 44 -95 19 -128 -43 -58 -102 -51 -149 18 -40 59 -28 103
36 129 43 17 67 12 94 -19z m342 6 c11 -8 29 -33 39 -56 23 -50 13 -73 -32
-78 -24 -2 -36 4 -57 28 -29 35 -32 51 -15 83 21 39 35 44 65 23z m-2158 -53
c47 -52 -5 -140 -77 -129 -50 8 -81 32 -81 64 1 34 15 53 60 81 41 24 65 20
98 -16z m-982 -24 c29 -28 30 -51 4 -95 -27 -42 -51 -49 -95 -28 -66 31 -84
87 -42 132 18 20 29 23 65 19 26 -3 53 -14 68 -28z m1686 4 c25 -23 24 -92 -2
-126 -26 -33 -53 -41 -82 -26 -58 31 -64 86 -16 136 35 37 71 42 100 16z m680
-13 c49 -38 42 -110 -11 -110 -35 0 -68 26 -76 61 -5 21 -1 31 21 48 33 26 35
26 66 1z m233 -30 c34 -67 32 -92 -10 -127 -34 -28 -34 -29 -23 -70 15 -52 0
-90 -38 -99 -34 -9 -72 28 -80 77 -5 27 -1 39 18 59 l23 25 -18 53 c-16 47
-16 55 -2 82 18 35 40 49 77 50 23 0 32 -8 53 -50z m-365 25 c19 -23 4 -61
-30 -75 -25 -10 -34 -10 -55 4 -29 19 -32 42 -8 68 20 22 76 24 93 3z m-1465
-30 c40 -39 26 -132 -25 -168 -15 -10 -25 -32 -31 -63 -16 -82 -58 -106 -104
-59 -39 38 -35 94 10 144 29 32 35 46 35 82 0 25 7 55 16 67 21 30 68 29 99
-3z m2597 -6 c23 -40 9 -76 -23 -58 -27 14 -34 35 -21 65 15 32 23 30 44 -7z
m-3112 -4 c21 -23 22 -28 12 -64 -14 -46 -48 -91 -69 -91 -28 0 -73 59 -73 97
0 72 82 109 130 58z m927 5 c41 -25 56 -54 49 -94 -16 -86 -127 -108 -156 -31
-14 36 38 145 69 145 3 0 20 -9 38 -20z m1808 -41 c29 -56 26 -81 -10 -105
-21 -13 -28 -14 -52 -2 -56 27 -62 89 -13 138 31 31 47 24 75 -31z m541 -5
c-5 -13 -10 -14 -18 -6 -6 6 -8 18 -4 28 5 13 10 14 18 6 6 -6 8 -18 4 -28z
m-3042 -32 c38 -35 -1 -162 -53 -170 -32 -5 -81 48 -81 88 0 37 23 85 47 99
22 13 62 5 87 -17z m945 -18 c25 -32 26 -51 4 -76 -25 -28 -52 -22 -67 14 -14
32 -12 51 7 76 15 19 34 14 56 -14z m1794 -25 c54 -44 62 -64 37 -89 -44 -44
-110 -8 -110 60 0 32 14 60 30 60 3 0 22 -14 43 -31z m-448 -13 c45 -46 59
-145 23 -170 -48 -34 -90 -11 -132 72 -28 55 -23 72 27 103 41 25 53 24 82 -5z
m-409 -20 c19 -19 34 -44 34 -56 0 -12 -15 -37 -34 -56 -43 -43 -82 -45 -119
-6 -38 40 -45 83 -17 121 18 26 28 31 62 31 32 0 47 -7 74 -34z m1301 8 c3 -8
1 -20 -5 -26 -15 -15 -62 6 -62 27 0 21 59 20 67 -1z m-2006 -15 c14 -26 -3
-69 -26 -69 -46 0 -73 48 -43 78 19 19 56 14 69 -9z m-656 -15 c29 -31 32 -75
8 -99 -13 -14 -28 -16 -65 -12 -37 5 -48 3 -48 -8 0 -8 -10 -26 -22 -40 -21
-24 -26 -25 -56 -14 -55 19 -69 75 -30 124 18 23 26 26 58 21 32 -5 39 -2 59
24 28 38 63 39 96 4z m793 -22 c16 -21 15 -87 -2 -115 -8 -12 -17 -41 -21 -65
-8 -50 -25 -61 -60 -38 -24 16 -24 18 -19 114 5 81 10 100 26 115 23 19 55 15
76 -11z m-1664 -37 c34 -31 33 -53 -5 -120 -26 -47 -35 -55 -59 -55 -37 0 -80
53 -87 107 -11 81 89 126 151 68z m1252 0 c19 -29 12 -73 -17 -104 -26 -27
-41 -27 -78 5 -40 33 -42 74 -5 103 37 29 79 27 100 -4z m-1037 -39 c19 -20
22 -32 17 -59 -9 -46 -38 -72 -65 -58 -45 24 -63 79 -41 122 15 27 61 25 89
-5z m2706 13 c12 -18 -17 -69 -47 -85 -27 -14 -32 -14 -54 1 -33 22 -32 60 4
79 32 18 88 21 97 5z m375 7 c0 -3 -4 -8 -10 -11 -5 -3 -10 -1 -10 4 0 6 5 11
10 11 6 0 10 -2 10 -4z m-2241 -46 c10 -5 24 -23 31 -40 11 -28 11 -34 -7 -58
-19 -25 -26 -27 -111 -30 -83 -2 -92 -1 -102 18 -18 34 -3 58 43 71 23 6 53
19 67 30 28 21 53 24 79 9z m366 -20 c21 -23 14 -50 -13 -50 -25 0 -56 35 -49
55 9 21 40 19 62 -5z m636 3 c57 -34 74 -140 30 -188 -10 -11 -26 -35 -35 -52
-32 -64 -97 -79 -162 -37 -45 30 -41 101 7 111 45 9 64 38 62 94 -2 38 2 54
17 69 24 24 43 25 81 3z m273 -57 c41 -17 76 -61 76 -94 0 -32 -46 -82 -76
-82 -63 0 -121 65 -109 120 6 28 46 70 67 70 5 0 23 -6 42 -14z m254 -2 c58
-40 42 -123 -24 -124 -27 0 -71 41 -80 75 -13 53 53 85 104 49z m201 -19 c36
-42 37 -46 12 -69 -40 -36 -99 15 -86 74 9 41 35 39 74 -5z m-2354 11 c38 -27
13 -140 -35 -166 -39 -21 -100 21 -100 68 0 28 34 87 58 102 24 14 55 12 77
-4z m199 -7 c30 -24 35 -72 10 -107 -21 -30 -50 -28 -85 7 -69 69 -1 160 75
100z m2476 -24 c12 -14 3 -45 -12 -45 -19 0 -78 42 -73 51 8 12 74 8 85 -6z
m-2295 -30 c39 -38 27 -102 -22 -124 -26 -12 -36 -9 -70 22 -31 28 -29 63 6
98 36 35 54 36 86 4z m507 -31 c34 -47 32 -74 -8 -100 -31 -21 -72 -6 -110 38
-24 29 -24 31 -8 57 42 64 82 66 126 5z m-1110 -11 c36 -32 8 -93 -43 -93 -27
0 -69 39 -69 65 0 43 75 62 112 28z m833 -17 c43 -18 58 -48 52 -102 -5 -52
-21 -74 -52 -74 -70 0 -133 122 -88 172 19 22 42 23 88 4z m477 -13 c22 -20
23 -46 2 -68 -22 -22 -44 -2 -44 40 0 47 12 56 42 28z m1616 -20 c2 -8 -5 -13
-17 -13 -21 0 -35 13 -24 24 10 10 36 3 41 -11z m-211 -35 c13 -12 23 -27 23
-35 0 -20 -37 -16 -60 7 -43 43 -8 70 37 28z m-213 -19 c21 -16 26 -28 24 -53
-3 -27 -7 -31 -34 -34 -25 -2 -37 3 -53 24 -25 32 -26 47 -5 68 21 21 36 20
68 -5z m-497 -7 c12 -9 25 -34 28 -54 6 -32 3 -41 -24 -70 -18 -18 -42 -49
-54 -68 -17 -26 -31 -36 -53 -38 -41 -4 -94 39 -94 76 0 27 25 62 46 62 12 0
38 29 77 84 21 30 43 33 74 8z m-1572 -17 c28 -27 31 -50 13 -92 -29 -69 -66
-80 -118 -37 -45 39 -64 78 -49 107 19 35 41 46 87 47 32 0 49 -6 67 -25z
m1224 -1 c26 -33 36 -83 24 -130 -7 -31 -16 -41 -60 -63 -46 -23 -52 -30 -52
-58 -1 -27 -5 -33 -23 -33 -24 0 -58 27 -58 46 0 7 14 23 31 35 31 22 31 22
25 90 -5 46 -3 76 5 91 28 53 76 63 108 22z m-1501 10 c31 -9 55 -56 43 -87
-24 -62 -72 -73 -122 -29 -26 24 -31 33 -25 56 4 15 21 35 39 46 36 22 34 22
65 14z m1101 -19 c42 -21 54 -61 26 -89 -29 -28 -115 17 -115 60 0 7 12 20 28
28 34 19 28 19 61 1z m1038 -20 c25 -17 32 -62 11 -83 -26 -26 -106 -2 -128
37 -14 27 -13 58 3 65 20 8 89 -3 114 -19z m-1616 -4 c39 -31 26 -138 -18
-155 -17 -7 -66 17 -94 45 -66 66 39 169 112 110z m394 -11 c11 -18 -6 -50
-25 -50 -27 0 -44 34 -30 60 9 16 15 18 30 10 10 -6 22 -15 25 -20z m87 -141
c56 -40 60 -107 8 -129 -32 -13 -59 -8 -109 23 -57 34 -74 111 -29 131 25 11
100 -4 130 -25z m967 6 c65 -33 51 -135 -19 -135 -24 0 -55 24 -74 57 -11 19
34 93 56 93 5 0 22 -7 37 -15z m-758 -5 c22 -12 26 -58 5 -66 -38 -14 -72 36
-44 64 15 15 15 15 39 2z m365 -8 c48 -39 57 -93 19 -118 -41 -27 -105 6 -105
56 0 68 41 99 86 62z m692 -8 c27 -18 28 -30 3 -43 -33 -18 -109 17 -111 51
-1 21 70 16 108 -8z m-1543 2 c59 -25 75 -94 30 -136 -31 -29 -75 -29 -118 2
-86 61 -87 106 -2 136 41 14 51 14 90 -2z m-763 -23 c25 -22 23 -59 -4 -77
-29 -21 -41 -20 -68 2 -28 23 -22 63 12 80 32 15 39 14 60 -5z m199 6 c42 -22
44 -83 4 -122 -24 -24 -51 -21 -80 10 -60 65 0 153 76 112z m284 -44 c29 -28
31 -62 7 -124 -22 -57 -40 -68 -81 -52 -64 27 -95 137 -51 181 29 29 94 27
125 -5z m4250 -10 c56 -7 136 -38 178 -67 15 -11 40 -47 56 -82 29 -61 29 -62
14 -116 -8 -30 -15 -65 -14 -76 1 -35 -102 -128 -198 -181 -87 -47 -174 -111
-201 -148 -32 -44 -230 -235 -244 -235 -8 0 -19 -6 -23 -14 -10 -18 -93 -66
-113 -66 -8 0 -35 -11 -60 -24 -25 -13 -81 -36 -125 -51 -77 -27 -236 -121
-252 -149 -4 -7 -22 -20 -39 -29 -17 -9 -36 -23 -43 -31 -7 -9 -43 -31 -80
-50 -37 -19 -85 -46 -106 -60 -21 -14 -44 -26 -51 -26 -8 0 -14 -4 -14 -9 0
-5 -24 -14 -52 -21 -29 -6 -62 -15 -73 -20 -52 -21 -106 -32 -132 -27 -52 9
-178 58 -215 82 -21 14 -45 25 -53 25 -9 0 -26 7 -39 16 -14 8 -35 16 -49 18
-13 1 -37 12 -52 24 -15 12 -36 22 -47 22 -10 0 -23 11 -30 24 -10 22 -5 32
42 93 30 37 59 72 67 76 7 4 19 20 27 35 18 33 134 149 201 199 28 21 71 58
95 83 67 68 211 169 295 208 22 11 86 42 143 71 56 28 127 61 156 72 30 11 69
33 88 50 18 16 51 39 73 51 22 11 65 38 95 58 30 20 80 49 112 64 31 15 58 32
61 40 3 7 22 21 44 31 37 18 93 54 103 66 3 4 45 25 95 47 l89 41 111 -4 c60
-1 133 -6 160 -10z m-2877 -51 c36 -25 45 -50 28 -83 -27 -52 -61 -49 -110 10
-31 37 -32 43 -6 69 24 24 57 26 88 4z m-134 -47 c3 -12 6 -41 6 -64 0 -32 -4
-43 -15 -43 -36 0 -75 122 -42 133 22 7 45 -4 51 -26z m-198 -19 c23 -22 35
-43 37 -63 2 -28 0 -30 -31 -28 -38 1 -65 22 -82 64 -10 23 -10 32 0 44 19 23
37 18 76 -17z m508 -4 c10 -25 7 -49 -7 -68 -11 -15 -17 -17 -35 -7 -25 13
-28 41 -10 71 15 24 43 26 52 4z m-751 -19 c62 -42 59 -105 -4 -105 -37 0 -99
54 -99 86 0 23 23 43 50 44 9 0 32 -11 53 -25z m961 19 c9 -3 16 -15 16 -26 0
-17 -4 -19 -27 -13 -31 7 -53 23 -53 36 0 10 41 12 64 3z m-1260 -24 c32 -12
66 -65 59 -91 -8 -29 -43 -49 -72 -42 -14 3 -41 19 -58 36 -70 65 -20 132 71
97z m-696 -16 c37 -25 45 -50 27 -83 -18 -37 -52 -61 -74 -54 -15 4 -15 4 0
-9 26 -21 69 -89 69 -109 0 -21 -55 -69 -79 -69 -38 0 -101 78 -101 125 0 21
48 65 71 65 18 0 18 1 -1 37 -25 47 -25 54 1 87 23 29 54 33 87 10z m443 -37
c47 -32 59 -69 32 -105 -11 -15 -29 -28 -41 -30 -24 -4 -67 17 -100 48 -28 26
-24 64 10 93 27 23 58 22 99 -6z m1160 -12 c32 -17 52 -55 43 -80 -7 -18 -7
-18 -49 -1 -38 16 -70 58 -61 81 7 19 29 19 67 0z m-1387 -56 c31 -37 33 -73
6 -116 -24 -41 -60 -44 -95 -8 -37 36 -31 79 18 133 27 29 40 28 71 -9z m1611
-4 c31 -30 35 -85 7 -85 -31 0 -79 68 -68 96 8 21 34 17 61 -11z m-364 -63
c60 -61 67 -129 12 -116 -43 11 -67 30 -90 71 -15 28 -18 44 -12 61 13 33 46
27 90 -16z m-306 -2 c33 -13 75 -58 75 -81 0 -24 -41 -35 -70 -19 -25 13 -60
67 -60 93 0 19 17 22 55 7z m-217 -24 c32 -17 56 -55 50 -82 -5 -29 -61 -31
-95 -4 -42 32 -64 71 -51 87 14 17 62 17 96 -1z m775 -24 c25 -22 21 -42 -8
-42 -24 0 -45 25 -45 54 0 18 25 12 53 -12z m-1015 -37 c37 -41 39 -48 12 -75
-30 -30 -63 -25 -104 17 -42 43 -45 65 -13 88 30 22 65 12 105 -30z m-261 -7
c23 -26 43 -61 43 -78 0 -18 -48 -60 -69 -60 -29 0 -91 58 -91 85 0 12 9 34
21 49 26 33 68 35 96 4z m-192 -60 c14 -16 25 -40 25 -53 0 -51 -84 -73 -127
-33 -33 30 -30 70 7 101 35 30 60 26 95 -15z m1096 -58 c22 -12 58 -79 52 -97
-8 -24 -41 -13 -72 22 -50 57 -37 105 20 75z m277 -20 c64 -39 69 -109 5 -77
-28 15 -53 53 -53 82 0 20 9 19 48 -5z m-508 -17 c39 -27 60 -54 60 -80 0 -46
-80 -22 -109 34 -28 56 -2 81 49 46z m-656 -46 c22 -12 48 -35 60 -50 19 -26
19 -30 5 -55 -28 -52 -111 -35 -145 29 -19 38 -18 55 6 79 25 25 26 25 74 -3z
m444 9 c38 -20 59 -60 42 -81 -7 -8 -19 -15 -26 -15 -22 0 -73 53 -80 83 -5
23 -3 27 15 27 12 0 34 -6 49 -14z m-200 -25 c34 -32 41 -61 17 -81 -20 -16
-84 15 -104 51 -33 60 30 82 87 30z m-461 -18 c59 -52 62 -94 10 -122 -75 -40
-183 76 -115 123 30 21 80 20 105 -1z m1258 -133 c19 0 45 -39 45 -67 0 -13
-2 -23 -4 -23 -31 0 -67 51 -65 92 0 13 3 17 6 11 2 -7 11 -13 18 -13z m-221
-11 c28 -22 56 -68 56 -92 0 -20 -28 -29 -51 -16 -28 14 -59 68 -59 102 0 33
17 35 54 6z m-821 -23 c37 -15 97 -79 97 -103 0 -25 -30 -53 -57 -53 -25 0
-60 15 -78 34 -55 58 -70 106 -37 125 23 14 37 13 75 -3z m646 -31 c33 -38 37
-50 20 -60 -30 -19 -99 38 -99 83 0 26 48 12 79 -23z m-401 -5 c49 -35 66 -63
58 -95 -8 -31 -38 -40 -73 -21 -29 14 -83 100 -83 130 0 26 53 19 98 -14z
m197 -12 c44 -42 50 -72 14 -76 -19 -2 -34 6 -58 33 -60 69 -23 106 44 43z
m-190 -244 c48 -49 64 -87 48 -113 -28 -44 -80 -9 -119 78 -31 68 -30 81 1 81
17 0 40 -15 70 -46z m184 -24 c52 -41 66 -75 35 -87 -36 -14 -104 54 -104 105
0 31 11 28 69 -18z m3503 -15 c64 -15 78 -22 83 -42 3 -13 13 -23 23 -23 16 0
18 -9 16 -67 -1 -38 -2 -70 -3 -73 0 -3 -17 -14 -36 -24 -24 -13 -35 -26 -35
-42 0 -15 -22 -46 -64 -87 -57 -58 -68 -65 -117 -72 -134 -20 -188 -20 -224
-1 -16 9 -35 16 -41 16 -5 0 -23 13 -39 29 -15 17 -37 31 -49 33 -19 3 -21 9
-20 66 2 60 4 67 40 104 22 21 67 60 102 85 34 25 62 52 62 59 0 7 10 16 23
20 12 4 25 11 29 17 8 13 81 26 133 23 22 -2 75 -11 117 -21z m-726 -425 c13
-28 13 -44 2 -58 -9 -10 -6 -14 10 -19 27 -7 29 -23 4 -23 -23 0 -42 -19 -42
-42 0 -10 -3 -18 -7 -18 -5 0 -22 -14 -40 -30 -18 -17 -36 -30 -42 -30 -5 0
-11 -4 -13 -8 -13 -31 -158 -98 -199 -91 -8 1 -21 0 -29 -4 -58 -22 -140 -23
-181 -3 -20 10 -30 11 -38 3 -16 -16 -42 13 -43 49 -1 45 10 70 37 82 14 6 25
16 25 22 0 5 6 10 14 10 7 0 20 7 27 16 16 19 189 104 280 137 79 29 224 34
235 7z"/>
<path d="M4185 5610 c3 -5 8 -10 11 -10 2 0 4 5 4 10 0 6 -5 10 -11 10 -5 0
-7 -4 -4 -10z"/>
<path d="M9760 10350 c-42 -19 -57 -29 -42 -30 12 0 39 9 60 20 90 47 79 53
-18 10z"/>
<path d="M9563 10313 c9 -2 23 -2 30 0 6 3 -1 5 -18 5 -16 0 -22 -2 -12 -5z"/>
<path d="M9638 10313 c12 -2 30 -2 40 0 9 3 -1 5 -23 4 -22 0 -30 -2 -17 -4z"/>
<path d="M9458 10293 c7 -3 16 -2 19 1 4 3 -2 6 -13 5 -11 0 -14 -3 -6 -6z"/>
<path d="M9936 10179 c-10 -17 -16 -33 -13 -35 5 -5 47 49 47 60 0 16 -18 3
-34 -25z"/>
<path d="M5405 10150 c-1081 -75 -2064 -469 -2895 -1161 -160 -133 -466 -439
-599 -599 -413 -495 -709 -1025 -913 -1630 -53 -160 -136 -467 -152 -565 l-6
-40 22 30 c12 17 52 62 89 100 36 39 92 99 124 135 31 36 69 79 84 95 110 123
172 196 197 231 17 23 56 65 89 95 32 30 97 92 144 139 48 47 109 106 136 131
28 25 70 68 95 95 25 27 74 74 110 104 36 30 92 84 125 120 66 72 103 99 191
139 55 24 112 57 124 71 18 21 154 103 184 111 21 6 60 24 87 40 27 16 54 29
58 29 5 0 15 7 22 16 7 9 36 26 64 39 27 12 86 46 130 76 90 60 194 112 305
154 41 16 87 37 102 47 51 35 133 68 170 68 26 0 40 6 47 19 6 10 25 24 43 30
102 38 206 99 341 202 31 24 178 89 200 89 9 0 28 11 44 24 15 12 39 29 53 36
36 18 210 151 210 159 0 10 123 84 173 105 81 34 174 103 216 162 23 33 59 72
82 89 22 16 49 44 60 61 10 17 39 44 64 60 25 15 52 39 60 51 9 13 37 34 63
47 26 13 60 38 76 55 18 18 44 33 65 37 20 3 48 15 64 25 64 45 276 119 341
119 24 0 56 4 72 10 16 5 57 11 91 13 58 3 64 6 117 54 55 51 186 133 211 133
8 0 17 4 20 10 3 5 32 17 63 26 31 9 64 22 72 29 19 16 150 50 251 65 42 6
127 10 190 9 63 -1 154 -1 204 0 53 1 110 -5 140 -14 28 -8 94 -16 146 -19 52
-2 102 -7 112 -11 9 -4 17 -3 17 2 0 10 -81 33 -135 38 -80 6 -173 25 -299 60
-240 65 -498 112 -776 140 -188 19 -607 27 -785 15z"/>
<path d="M7743 9913 c9 -2 23 -2 30 0 6 3 -1 5 -18 5 -16 0 -22 -2 -12 -5z"/>
<path d="M7468 9903 c7 -3 16 -2 19 1 4 3 -2 6 -13 5 -11 0 -14 -3 -6 -6z"/>
<path d="M7573 9897 c19 -5 61 -4 93 1 58 9 57 9 -34 8 -72 -1 -86 -3 -59 -9z"/>
<path d="M7428 9893 c7 -3 16 -2 19 1 4 3 -2 6 -13 5 -11 0 -14 -3 -6 -6z"/>
<path d="M8755 9780 c3 -5 10 -10 16 -10 5 0 9 5 9 10 0 6 -7 10 -16 10 -8 0
-12 -4 -9 -10z"/>
<path d="M5515 9430 c-8 -13 5 -13 25 0 13 8 13 10 -2 10 -9 0 -20 -4 -23 -10z"/>
<path d="M5724 9292 c-6 -4 -14 -20 -18 -35 -9 -37 -29 -43 -77 -22 -47 22
-61 13 -63 -39 l-1 -34 35 15 c19 9 58 21 85 28 28 7 65 19 83 25 32 12 33 13
15 32 -24 27 -47 38 -59 30z"/>
<path d="M5156 9254 c-98 -59 -216 -172 -216 -208 0 -7 39 25 110 90 30 28 71
59 90 69 54 27 112 86 83 85 -5 -1 -34 -17 -67 -36z"/>
<path d="M5431 9168 c-5 -14 -5 -24 1 -27 15 -5 41 25 34 38 -11 18 -26 13
-35 -11z"/>
<path d="M5303 9059 c-44 -52 -56 -83 -28 -73 8 4 15 10 15 15 0 4 16 24 35
43 32 32 46 66 28 66 -5 0 -27 -23 -50 -51z"/>
<path d="M4896 8992 c-34 -49 -27 -68 10 -30 16 16 25 34 22 48 -3 22 -5 20
-32 -18z"/>
<path d="M5190 8911 c-7 -15 -7 -21 0 -21 12 0 25 28 17 36 -3 3 -10 -4 -17
-15z"/>
<path d="M4455 8580 c-4 -7 -1 -16 6 -21 17 -10 26 8 11 23 -6 6 -12 6 -17 -2z"/>
<path d="M4800 8508 c0 -35 15 -67 25 -56 7 6 -12 88 -20 88 -3 0 -5 -15 -5
-32z"/>
<path d="M4480 8457 c0 -18 45 -41 60 -32 9 6 6 13 -11 26 -28 22 -49 24 -49
6z"/>
<path d="M4851 8274 c0 -11 3 -14 6 -6 3 7 2 16 -1 19 -3 4 -6 -2 -5 -13z"/>
<path d="M3543 7975 c-36 -39 -58 -55 -76 -55 -19 0 -40 -17 -81 -62 -44 -50
-58 -60 -68 -50 -26 26 -42 15 -159 -101 -30 -30 -47 -83 -31 -99 7 -7 17 3
32 31 22 43 125 121 160 121 9 0 27 12 41 26 13 14 51 41 84 60 90 50 203 184
156 184 -4 0 -31 -25 -58 -55z"/>
<path d="M5110 7964 c0 -15 37 -61 43 -54 3 3 -6 19 -19 35 -13 17 -24 25 -24
19z"/>
<path d="M3230 7884 c0 -8 5 -12 10 -9 6 3 10 10 10 16 0 5 -4 9 -10 9 -5 0
-10 -7 -10 -16z"/>
<path d="M5223 7866 c4 -10 7 -21 7 -26 0 -12 29 -40 42 -40 7 0 2 10 -10 23
-12 13 -22 28 -22 35 0 6 -5 14 -12 18 -8 5 -9 2 -5 -10z"/>
<path d="M3473 7783 c-29 -39 -53 -79 -53 -88 0 -16 51 -1 92 28 52 35 66 60
48 82 -22 27 -56 17 -87 -22z"/>
<path d="M5474 7745 c26 -19 42 -19 26 0 -7 8 -20 15 -29 15 -13 -1 -13 -3 3
-15z"/>
<path d="M5713 7753 c-7 -2 -13 -11 -13 -19 0 -11 5 -11 25 -2 39 18 28 38
-12 21z"/>
<path d="M3350 7713 c-28 -10 -72 -58 -95 -104 -24 -46 -40 -59 -75 -59 -26 0
-58 -45 -72 -98 -6 -26 -23 -55 -42 -72 -16 -16 -27 -32 -23 -36 4 -4 22 10
39 31 64 74 118 122 157 140 31 13 43 26 52 54 7 20 34 57 63 84 42 39 48 49
36 57 -17 11 -18 11 -40 3z"/>
<path d="M5625 7709 c-9 -14 -4 -18 33 -25 25 -5 32 -3 32 9 0 24 -52 38 -65
16z"/>
<path d="M2990 7480 c-24 -47 -26 -76 -4 -84 39 -15 44 -8 44 59 0 36 -4 65
-10 65 -5 0 -19 -18 -30 -40z"/>
<path d="M2857 7473 c-4 -3 -7 -11 -7 -17 0 -6 5 -5 12 2 6 6 9 14 7 17 -3 3
-9 2 -12 -2z"/>
<path d="M2848 7373 c-23 -27 -50 -82 -43 -92 9 -16 80 7 103 34 26 31 27 39
6 59 -20 21 -47 20 -66 -1z"/>
<path d="M2935 7256 c-51 -23 -162 -182 -141 -203 3 -3 17 -1 31 5 14 7 40 12
57 12 28 0 30 2 24 28 -20 78 -19 81 14 112 18 16 38 30 46 30 8 0 14 7 14 15
0 18 -6 18 -45 1z"/>
<path d="M2960 7134 c-17 -31 -30 -57 -28 -59 6 -6 116 70 123 84 7 17 -11 31
-42 31 -15 0 -30 -15 -53 -56z"/>
<path d="M2556 7128 c-41 -48 -44 -58 -15 -58 23 0 121 79 113 92 -3 4 -18 8
-34 8 -21 0 -38 -11 -64 -42z"/>
<path d="M2645 7020 c-3 -5 -22 -10 -42 -10 -45 0 -90 -33 -121 -88 l-23 -41
53 0 c50 1 56 4 98 47 25 26 53 52 63 57 12 7 16 16 12 28 -8 19 -30 23 -40 7z"/>
<path d="M2085 6987 c-4 -10 -5 -31 -1 -47 4 -21 -1 -45 -16 -75 l-22 -45 24
-25 c20 -22 22 -29 12 -43 -23 -31 -41 -77 -31 -80 10 -4 80 36 91 52 3 5 -5
32 -19 58 -22 42 -25 58 -21 111 6 70 -4 125 -17 94z"/>
<path d="M2250 6838 c0 -9 5 -20 10 -23 13 -8 13 5 0 25 -8 13 -10 13 -10 -2z"/>
<path d="M2545 6803 c-70 -86 -73 -113 -12 -113 39 0 47 5 95 55 29 31 52 60
52 64 0 11 -55 31 -84 31 -12 0 -34 -16 -51 -37z"/>
<path d="M2398 6768 c9 -9 15 -9 24 0 9 9 7 12 -12 12 -19 0 -21 -3 -12 -12z"/>
<path d="M2720 6718 c-26 -44 -25 -52 5 -32 15 10 25 26 25 40 0 32 -7 30 -30
-8z"/>
<path d="M1742 6688 c-14 -14 -16 -64 -2 -73 10 -6 40 45 40 70 0 18 -21 20
-38 3z"/>
<path d="M2165 6649 c-19 -17 -35 -35 -35 -41 0 -5 -16 -33 -35 -62 -34 -51
-44 -86 -26 -86 5 0 25 7 45 15 33 14 36 19 36 56 0 32 7 49 35 82 57 66 43
91 -20 36z"/>
<path d="M1925 6592 c-23 -5 -45 -21 -45 -33 0 -15 47 -10 60 6 16 19 9 32
-15 27z"/>
<path d="M1722 6555 c-20 -43 -14 -60 25 -79 35 -17 38 -17 50 0 7 10 13 23
13 29 0 11 -61 75 -71 75 -3 0 -11 -11 -17 -25z"/>
<path d="M1733 6353 c-24 -36 -47 -59 -62 -63 -38 -9 -35 -27 5 -33 22 -4 50
-1 71 8 19 8 49 16 67 17 35 2 66 14 66 27 0 18 -74 101 -91 101 -10 0 -33
-23 -56 -57z"/>
<path d="M1930 6379 c0 -5 5 -7 10 -4 6 3 10 8 10 11 0 2 -4 4 -10 4 -5 0 -10
-5 -10 -11z"/>
<path d="M1821 6189 c-31 -33 -57 -52 -75 -54 -39 -5 -55 -22 -63 -67 -3 -22
-16 -52 -28 -66 -12 -15 -31 -45 -41 -66 -20 -42 -32 -51 -76 -61 -32 -6 -73
-63 -82 -113 -8 -45 14 -51 64 -18 22 14 44 26 48 26 26 0 63 49 111 144 55
110 85 143 123 133 15 -4 40 6 81 33 44 30 70 40 98 40 22 0 39 4 39 9 0 17
-123 111 -145 111 -4 0 -28 -23 -54 -51z"/>
<path d="M1338 6177 c-45 -35 -56 -62 -24 -62 11 0 21 -6 24 -13 6 -20 70 -14
92 8 25 25 26 52 3 72 -34 29 -51 28 -95 -5z"/>
<path d="M1550 6113 c0 -5 -14 -23 -30 -41 -30 -32 -31 -32 -61 -17 -40 21
-64 12 -97 -38 -15 -23 -32 -46 -39 -52 -7 -5 -13 -23 -15 -40 -3 -26 1 -30
24 -33 15 -2 38 4 51 12 13 9 44 22 70 30 67 20 126 92 127 154 0 22 -5 32
-15 32 -8 0 -15 -3 -15 -7z"/>
<path d="M1791 5928 c-17 -23 -31 -48 -31 -56 0 -8 -13 -43 -30 -78 -25 -55
-34 -65 -60 -71 -39 -7 -55 -32 -80 -117 -17 -59 -17 -66 -3 -66 19 0 120 76
133 99 4 9 31 47 60 86 28 38 58 84 67 102 8 18 19 33 23 33 5 0 11 9 15 20 4
13 -3 31 -22 55 -15 19 -31 35 -35 35 -3 0 -20 -19 -37 -42z"/>
<path d="M1155 5845 c-37 -41 -33 -55 12 -45 34 8 82 44 72 54 -2 2 -16 7 -31
11 -22 6 -32 1 -53 -20z"/>
<path d="M1350 5725 c-19 -20 -33 -25 -71 -25 -44 0 -51 -3 -80 -39 -17 -22
-44 -45 -59 -51 -16 -7 -36 -20 -46 -31 -9 -10 -33 -21 -53 -25 -78 -12 -133
-52 -146 -105 -10 -42 16 -56 62 -32 21 11 51 23 66 27 16 4 47 24 70 45 29
26 55 40 84 45 118 18 205 91 215 181 4 37 -13 41 -42 10z"/>
<path d="M950 5671 c-13 -26 -13 -31 4 -25 16 6 29 44 15 44 -4 0 -13 -9 -19
-19z"/>
<path d="M1456 5583 c-29 -66 -31 -68 -77 -71 -35 -2 -49 -9 -69 -33 -15 -18
-40 -34 -60 -38 -26 -5 -42 -18 -64 -50 -27 -41 -31 -43 -68 -38 -23 3 -53 0
-71 -8 -27 -11 -37 -11 -70 2 -45 18 -52 14 -89 -53 -13 -23 -49 -83 -81 -133
-51 -79 -58 -95 -55 -132 l3 -42 33 27 c17 15 32 36 32 46 0 35 23 70 59 92
20 12 45 30 57 40 30 27 84 41 90 23 6 -15 -27 -85 -50 -104 -9 -8 -16 -19
-16 -26 0 -26 -41 -109 -70 -142 -28 -32 -48 -78 -38 -89 3 -2 30 7 60 21 50
23 58 31 81 83 15 32 38 69 52 82 21 20 25 32 25 85 0 74 16 100 77 126 25 10
65 33 89 51 41 30 48 31 84 21 35 -9 42 -8 57 9 10 11 37 31 60 45 27 16 55
46 82 89 23 36 41 69 41 74 0 15 -61 80 -75 80 -7 0 -20 -17 -29 -37z"/>
<path d="M776 4769 c-15 -22 -12 -114 4 -133 14 -14 80 54 80 83 0 60 -54 92
-84 50z"/>
</g>
</svg>
